<?xml version="1.0" encoding="UTF-8"?>
<svg width="230px" height="215px" viewBox="0 0 230 215" version="1.1" xmlns="http://www.w3.org/2000/svg" xmlns:xlink="http://www.w3.org/1999/xlink">
    <title>address3</title>
    <g id="Page-1" stroke="none" stroke-width="1" fill="none" fill-rule="evenodd">
        <g id="address3" transform="translate(-24.000000, -48.000000)">
            <g transform="translate(24.000000, 48.000000)" id="Register">
                <rect id="base-65" fill="#B8C5D0" fill-rule="nonzero" x="0" y="0" width="230" height="214.484127" rx="4"></rect>
                <path d="M15.3333333,21.0529101 L214.666667,21.0529101 C218.90085,21.0529101 222.333333,23.6136518 222.333333,26.7724868 L222.333333,201.219577 C222.333333,204.378412 218.90085,206.939153 214.666667,206.939153 L15.3333333,206.939153 C11.0991503,206.939153 7.66666667,204.378412 7.66666667,201.219577 L7.66666667,26.7724868 C7.66666667,23.6136518 11.0991503,21.0529101 15.3333333,21.0529101 Z M10.4047619,6.75396825 C11.9169701,6.75396825 13.1428571,7.97985525 13.1428571,9.49206349 C13.1428571,11.0042717 11.9169701,12.2301587 10.4047619,12.2301587 C8.89255366,12.2301587 7.66666667,11.0042717 7.66666667,9.49206349 C7.66666667,7.97985525 8.89255366,6.75396825 10.4047619,6.75396825 Z M19.1666667,6.75396825 C20.6788749,6.75396825 21.9047619,7.97985525 21.9047619,9.49206349 C21.9047619,11.0042717 20.6788749,12.2301587 19.1666667,12.2301587 C17.6544584,12.2301587 16.4285714,11.0042717 16.4285714,9.49206349 C16.4285714,7.97985525 17.6544584,6.75396825 19.1666667,6.75396825 Z M27.3809524,6.75396825 C28.8931606,6.75396825 30.1190476,7.97985525 30.1190476,9.49206349 C30.1190476,11.0042717 28.8931606,12.2301587 27.3809524,12.2301587 C25.8687441,12.2301587 24.6428571,11.0042717 24.6428571,9.49206349 C24.6428571,7.97985525 25.8687441,6.75396825 27.3809524,6.75396825 Z" id="inner_browser-59" fill="#F6F8F9"></path>
                <g id="Group" transform="translate(29.666963, 39.883722)" fill-rule="nonzero">
                    <rect id="input_copy_15-3" fill="#B8C5D0" x="63.6764946" y="0" width="103.134921" height="23.2445852" rx="1"></rect>
                    <path d="M0.843333333,17.3384403 C1.02222222,17.2873292 1.08611111,17.2873292 1.36722222,17.2489959 C1.45986111,17.2394125 1.62118056,17.2202459 1.825625,17.19489 L2.16144097,17.1526385 C2.76439236,17.0758969 3.55701389,16.9710792 4.14,16.8912181 C5.43055556,16.7123292 5.98,16.610107 7.20666667,16.3417737 L7.19388889,15.1789959 C6.00555556,15.3962181 5.66055556,15.460107 4.70222222,15.5878848 L4.70222222,14.3995514 L6.12055556,14.3995514 C6.74666667,14.3995514 6.97666667,14.4123292 7.30888889,14.4506625 L7.30888889,13.1856625 C7.10444444,13.2112181 6.97666667,13.2239959 6.68277778,13.2367737 L6.68277778,11.9078848 C6.95111111,11.9078848 7.10444444,11.9206625 7.46222222,11.9589959 L7.46222222,10.6812181 C7.15555556,10.7195514 7.06611111,10.7195514 6.68277778,10.7323292 L6.68277778,9.49288477 C6.98944444,9.50566255 7.10444444,9.51844033 7.32166667,9.54399588 L7.32166667,8.2662181 C7.01116667,8.3122181 6.82486667,8.3271681 6.31564667,8.3296981 L4.70222222,8.33010699 L4.70222222,7.3462181 C5.48166667,7.2312181 6.37611111,7.06510699 7.14277778,6.87344033 L6.41444444,5.74899588 C5.48166667,6.15788477 3.42444444,6.4262181 0.702777778,6.47732922 C0.971111111,6.89899588 1.07333333,7.14177366 1.18833333,7.64010699 C1.36722222,7.63158847 1.52658951,7.62377983 1.67181842,7.61632613 L2.07047325,7.59467489 C2.55981481,7.56627983 2.90907407,7.53788477 3.46277778,7.48677366 L3.46277778,8.33010699 L1.94222222,8.33010699 C1.25222222,8.33010699 1.06055556,8.31732922 0.715555556,8.2662181 L0.715555556,9.54399588 C0.983888889,9.51844033 1.15,9.50566255 1.53333333,9.49288477 L1.53333333,10.7323292 C0.983888889,10.7323292 0.766666667,10.7195514 0.434444444,10.6556625 L0.434444444,11.9717737 C0.766666667,11.9206625 0.983888889,11.9078848 1.53333333,11.9078848 L1.53333333,13.2367737 C1.13722222,13.2239959 0.983888889,13.2112181 0.741111111,13.1856625 L0.741111111,14.4634403 C1.11166667,14.4123292 1.40555556,14.3995514 1.955,14.3995514 L3.46277778,14.3995514 L3.46277778,15.7284403 C2.22248148,15.8476996 1.46081235,15.9113045 0.938827819,15.9192551 L0.830555556,15.920107 C0.792222222,15.920107 0.728333333,15.920107 0.651666667,15.9073292 L0.843333333,17.3384403 Z M9.09777778,17.6195514 C9.03388889,17.2489959 9.00833333,16.7889959 9.00833333,16.035107 L9.00833333,7.48677366 L10.695,7.48677366 C10.3372222,8.59844033 9.87722222,9.71010699 9.36611111,10.7067737 C9.97944444,11.3584403 10.2222222,11.6778848 10.4777778,12.1634403 C10.7716667,12.7256625 10.9377778,13.3389959 10.9505556,13.8628848 L10.9505556,13.9395514 L10.9505556,13.9395514 L10.9633333,14.0034403 C10.9633333,14.1823292 10.8866667,14.3612181 10.7716667,14.4378848 C10.6566667,14.5273292 10.5033333,14.5528848 10.1838889,14.5528848 C9.81333333,14.5528848 9.58333333,14.540107 9.26388889,14.4762181 C9.45555556,14.9106625 9.49388889,15.1278848 9.51944444,15.8689959 C9.78777778,15.8817737 9.91555556,15.8817737 10.0305556,15.8817737 C10.7205556,15.8817737 11.0911111,15.8434403 11.3722222,15.7284403 C11.9216667,15.5112181 12.2666667,14.8978848 12.2666667,14.1056625 C12.2666667,13.620107 12.2283333,13.2623292 12.1133333,12.8789959 C11.8833333,12.0484403 11.5383333,11.4734403 10.7588889,10.5789959 C11.2061111,9.73566255 11.7044444,8.6112181 12.1388889,7.48677366 C12.19,7.33344033 12.3177778,7.05232922 12.3561111,6.97566255 L11.7172222,6.17066255 C11.5047917,6.20420422 11.2727951,6.21817991 10.8842708,6.22114974 L8.72722222,6.22177366 C8.28,6.22177366 8.02444444,6.20899588 7.67944444,6.18344033 C7.71777778,6.51566255 7.73055556,6.87344033 7.73055556,7.24399588 L7.73055556,16.1756625 C7.73055556,16.840107 7.71777778,17.2234403 7.65388889,17.6195514 L9.09777778,17.6195514 Z M3.46277778,10.7323292 L2.72166667,10.7323292 L2.72166667,9.49288477 L3.46277778,9.49288477 L3.46277778,10.7323292 Z M5.49444444,10.7323292 L4.70222222,10.7323292 L4.70222222,9.49288477 L5.49444444,9.49288477 L5.49444444,10.7323292 Z M3.46277778,13.2367737 L2.72166667,13.2367737 L2.72166667,11.9078848 L3.46277778,11.9078848 L3.46277778,13.2367737 Z M5.49444444,13.2367737 L4.70222222,13.2367737 L4.70222222,11.9078848 L5.49444444,11.9078848 L5.49444444,13.2367737 Z M15.8572222,17.6323292 C15.8061111,17.1339959 15.7933333,16.7378848 15.7933333,16.150107 L15.7933333,8.73899588 C16.1127778,8.02344033 16.3172222,7.4612181 16.4961111,6.87344033 C16.6111111,6.47732922 16.6622222,6.3112181 16.7516667,6.10677366 L15.3844444,5.67232922 C15.2822222,6.27288477 15.18,6.6562181 14.9116667,7.41010699 C14.4005556,8.82844033 13.7872222,9.88899588 12.9822222,10.7706625 C13.2761111,11.2945514 13.4166667,11.6395514 13.5827778,12.2656625 C13.9661111,11.780107 14.1961111,11.435107 14.49,10.8984403 C14.4593333,11.3073292 14.4532,11.5117737 14.4519733,11.9566448 L14.4516667,16.0095514 C14.4516667,16.6995514 14.4261111,17.185107 14.375,17.6323292 L15.8572222,17.6323292 Z M16.6366667,17.5428848 C17.9527778,17.1595514 18.7322222,16.7889959 19.5116667,16.1628848 C20.93,16.9039959 22.2716667,17.2106625 24.7122222,17.3639959 C24.8783333,16.7378848 25.0061111,16.3673292 25.2105556,15.9456625 L24.7888889,15.9456625 L24.7888889,15.9456625 C24.2394444,15.9456625 23.575,15.9073292 22.9233333,15.8178848 C21.9138889,15.7028848 21.2622222,15.5239959 20.4188889,15.1662181 C20.8022222,14.5656625 20.9427778,14.1695514 21.0577778,13.4667737 L23.4344444,13.4667737 C23.8944444,13.4667737 24.1372222,13.4795514 24.4694444,13.5306625 C24.4311111,13.0706625 24.4183333,12.8534403 24.4183333,12.1634403 L24.4183333,9.7612181 L24.4183629,9.58522048 L24.4183629,9.58522048 L24.4191319,9.29782401 C24.4215278,8.92107922 24.4311111,8.75816255 24.4694444,8.39399588 C24.2011111,8.4387181 23.9327778,8.45409137 23.5018023,8.4572359 L21.2877778,8.45788477 L21.2877778,7.5762181 L23.7538889,7.5762181 C24.2522222,7.5762181 24.6611111,7.58899588 25.0316667,7.64010699 L25.0316667,6.27288477 C24.61,6.32399588 24.1372222,6.34955144 23.575,6.34955144 L18.1572222,6.34955144 C17.595,6.34955144 17.135,6.32399588 16.7133333,6.27288477 L16.7133333,7.64010699 C17.0966667,7.58899588 17.4288889,7.5762181 17.9527778,7.5762181 L19.9844444,7.5762181 L19.9844444,8.45788477 L18.055,8.45788477 C17.5311111,8.45788477 17.1988889,8.44510699 16.8666667,8.39399588 C16.905,8.87955144 16.9177778,9.12232922 16.9177778,9.72288477 L16.9177778,12.2145514 C16.9177778,12.8023292 16.905,13.045107 16.8666667,13.5306625 C17.1861111,13.4795514 17.4288889,13.4667737 17.7866667,13.4667737 L19.7416667,13.4667737 C19.6266667,13.9267737 19.5116667,14.195107 19.2688889,14.540107 C18.86,14.2717737 18.6938889,14.1312181 18.2977778,13.7478848 L17.1861111,14.4506625 C17.2592929,14.509905 17.3125161,14.5529904 17.3605551,14.5921013 L17.4540988,14.6686336 C17.5494858,14.7470859 17.6635354,14.8421272 17.9144444,15.0512181 C18.0422222,15.1789959 18.1572222,15.2684403 18.3488889,15.4089959 C17.71,15.8434403 17.2627778,16.0223292 16.1,16.265107 C16.3683333,16.7378848 16.5344444,17.1212181 16.6366667,17.5428848 Z M19.9588889,10.3617737 L18.2594444,10.3617737 L18.2594444,9.54399588 L19.9716667,9.54399588 L19.9716417,9.67137435 L19.9716417,9.67137435 L19.9709928,9.85665213 C19.9698698,9.98842297 19.966875,10.0902459 19.9588889,10.3617737 Z M23.0638889,10.3617737 L21.2622222,10.3617737 C21.275,9.94010699 21.275,9.94010699 21.2877778,9.54399588 L23.0638889,9.54399588 L23.0638889,10.3617737 Z M19.8822222,12.355107 L18.2594444,12.355107 L18.2594444,11.4223292 L19.9333333,11.4223292 C19.9205556,11.8567737 19.9077778,12.0867737 19.8822222,12.355107 Z M23.0638889,12.355107 L21.1855556,12.355107 C21.2111111,12.010107 21.2111111,11.8695514 21.2366667,11.4223292 L23.0638889,11.4223292 L23.0638889,12.355107 Z M29.1205556,17.6195514 L29.1205556,17.0317737 L34.7938889,17.0317737 L34.7938889,17.6195514 L36.1994444,17.6195514 C36.1435417,17.2505931 36.1267708,16.9598987 36.1234516,16.4906647 L36.1227778,12.9428848 C36.5444444,13.1728848 36.7488889,13.275107 37.2855556,13.5178848 C37.5283333,12.9428848 37.6816667,12.6617737 38.0266667,12.2017737 C36.4166667,11.7928848 35.1005556,11.1156625 33.9761111,10.1445514 L36.1738889,10.1445514 C36.7105556,10.1445514 37.1577778,10.170107 37.5666667,10.2212181 L37.5666667,8.90510699 C37.2216667,8.9562181 36.8255556,8.98177366 36.1738889,8.98177366 L35.0622222,8.98177366 C35.3816667,8.50899588 35.6116667,8.08732922 35.8288889,7.65288477 L34.4872222,7.32066255 C34.2572222,7.95955144 34.0527778,8.39399588 33.6822222,8.98177366 L32.5322222,8.98177366 L32.5322222,7.43566255 C34.4455556,7.22566255 35.261715,7.12218429 35.9241126,7.02796879 L36.11,7.0012181 L36.11,7.0012181 C36.2888889,6.97566255 36.4038889,6.95010699 36.4422222,6.95010699 C36.6977778,6.91177366 36.6977778,6.91177366 36.8255556,6.89899588 L35.8672222,5.72344033 C35.1388889,5.94066255 34.0016667,6.13232922 32.5322222,6.27288477 C30.6275347,6.45257227 29.7560503,6.50872461 28.3384844,6.51504175 L27.8107019,6.5153821 C27.5416324,6.51440055 27.277716,6.50998354 26.8205556,6.49010699 C27.1016667,6.91177366 27.1911111,7.1162181 27.37,7.70399588 C28.1622222,7.70399588 28.29,7.6912181 29.0822222,7.66566255 L28.175,7.97232922 C28.5583333,8.59844033 28.6222222,8.71344033 28.75,8.98177366 L27.6894444,8.98177366 C27.0633333,8.98177366 26.6416667,8.9562181 26.2838889,8.90510699 L26.2838889,10.2212181 C26.6672222,10.170107 27.1527778,10.1445514 27.6894444,10.1445514 L29.785,10.1445514 C28.7627778,11.1284403 27.5872222,11.780107 25.99,12.2528848 C26.3477778,12.6617737 26.565,13.0195514 26.7311111,13.5178848 C27.2805556,13.2367737 27.4466667,13.1473292 27.7916667,12.9556625 L27.7916667,16.2778848 C27.7916667,16.7506625 27.7661111,17.2362181 27.7277778,17.6195514 L29.1205556,17.6195514 Z M31.2161111,8.98177366 L30.0788889,8.98177366 C29.8872222,8.54732922 29.6061111,8.01066255 29.3888889,7.65288477 C30.6922222,7.60177366 30.6922222,7.60177366 31.2161111,7.56344033 L31.2161111,8.98177366 Z M34.6022222,12.0484403 L29.2483333,12.0484403 C30.1044444,11.4478848 30.6411111,10.9495514 31.2416667,10.2084403 C31.2288889,10.4256625 31.2161111,10.5789959 31.2161111,10.6556625 L31.2161111,10.9878848 C31.2161111,11.2945514 31.2033333,11.435107 31.1522222,11.7928848 L32.5833333,11.7928848 C32.5504762,11.6505038 32.5363946,11.4330208 32.5330418,11.1323891 L32.5322222,10.630107 C32.5322222,10.5534403 32.5322222,10.5406625 32.5066667,10.3873292 C32.5066667,10.3822181 32.5066667,10.3689292 32.5058489,10.3474625 L32.5001244,10.2585292 C32.4984889,10.2396181 32.4964444,10.2186625 32.4938889,10.1956625 C33.12,10.9367737 33.695,11.435107 34.6022222,12.0484403 Z M31.2416667,13.965107 L29.1205556,13.965107 L29.1205556,13.160107 L31.2416667,13.160107 L31.2416667,13.965107 Z M34.7938889,13.9778848 L32.5322222,13.9778848 L32.5322222,13.1728848 L34.7938889,13.1728848 L34.7938889,13.9778848 Z M31.2416667,15.8817737 L29.1205556,15.8817737 L29.1205556,15.0895514 L31.2416667,15.0895514 L31.2416667,15.8817737 Z M34.7811111,15.8945514 L32.5194444,15.8945514 L32.5194444,15.0895514 L34.7811111,15.0895514 L34.7811111,15.8945514 Z M48.99,9.95288477 C48.9571429,9.65717049 48.9430612,9.41778273 48.9397085,9.05769527 L48.9388889,7.20566255 C48.9388889,6.7712181 48.9516667,6.45177366 48.99,6.14510699 C48.6795,6.19110699 48.33795,6.20605699 47.74179,6.20858699 L41.8983333,6.20899588 C41.3105556,6.20899588 40.9016667,6.1962181 40.4544444,6.14510699 C40.4927778,6.50288477 40.5055556,6.7712181 40.5055556,7.20566255 L40.5055556,8.86677366 C40.5055556,9.31399588 40.4927778,9.59510699 40.4544444,9.95288477 C40.8377778,9.91455144 41.1444444,9.90177366 41.7705556,9.90177366 L47.6738889,9.90177366 C48.3255556,9.90177366 48.6066667,9.91455144 48.99,9.95288477 Z M47.5333333,8.7262181 L41.8727778,8.7262181 L41.8727778,7.41010699 L47.5333333,7.41010699 L47.5333333,8.7262181 Z M45.8977778,17.4789959 C47.2394444,17.4789959 47.725,17.3384403 48.1211111,16.8528848 C48.4661111,16.4312181 48.7088889,15.4345514 48.9261111,13.5945514 C48.9435354,13.444703 48.9581084,13.321466 48.9703485,13.2199158 L48.991872,13.0442718 C49.0105923,12.8946249 49.0213636,12.8185918 49.0283333,12.7767737 C48.7178333,12.8112737 48.4487333,12.8250737 47.9043233,12.8274887 L42.895,12.8278848 C43.0611111,12.4956625 43.125,12.3423292 43.3166667,11.895107 L49.0666667,11.895107 C49.7055556,11.895107 50.2038889,11.9206625 50.5744444,11.9717737 L50.5744444,10.5917737 C50.2038889,10.6428848 49.7183333,10.6684403 49.0666667,10.6684403 L40.3777778,10.6684403 C39.7261111,10.6684403 39.2405556,10.6428848 38.8827778,10.5917737 L38.8827778,11.9717737 C39.2661111,11.9206625 39.7516667,11.895107 40.365,11.895107 L41.7833333,11.895107 C41.4,12.8278848 40.8888889,13.7095514 40.1605556,14.6806625 L41.6938889,14.9617737 C42.0005556,14.4889959 42.1027778,14.3228848 42.2816667,14.0034403 L47.4055556,14.0034403 C47.2777778,15.115107 47.1372222,15.690107 46.9455556,15.9456625 C46.7922222,16.1373292 46.5111111,16.2139959 45.885,16.2139959 C45.425,16.2139959 44.4922222,16.1373292 43.6233333,16.035107 C43.8661111,16.5717737 43.9555556,16.955107 43.9683333,17.4023292 C44.7477778,17.4534403 45.2333333,17.4789959 45.8977778,17.4789959 Z" id="郵便番号" fill="#454D58"></path>
                </g>
                <g id="Group" transform="translate(29.666963, 72.740865)" fill-rule="nonzero">
                    <rect id="input_copy_15-3" fill="#B8C5D0" x="63.6764946" y="0" width="103.134921" height="23.2445852" rx="1"></rect>
                    <path d="M8.94444444,17.6195514 C8.89333333,17.1595514 8.86777778,16.5717737 8.86777778,15.8817737 L8.86777778,7.42288477 L10.6694444,7.42288477 C10.3244444,8.54732922 9.91555556,9.56955144 9.35333333,10.6556625 C10.0561111,11.3584403 10.3883333,11.895107 10.6311111,12.6489959 C10.7461111,13.0195514 10.81,13.4667737 10.81,13.8884403 C10.81,14.3867737 10.5161111,14.5912181 9.78777778,14.5912181 C9.63444444,14.5912181 9.50666667,14.5784403 9.11055556,14.5528848 C9.34055556,14.9873292 9.40444444,15.2556625 9.45555556,15.9712181 C10.4394444,15.9712181 10.7972222,15.9328848 11.1933333,15.7667737 C11.8833333,15.4984403 12.2283333,14.8723292 12.2283333,13.9012181 C12.2283333,13.4028848 12.1133333,12.8662181 11.8705556,12.2912181 C11.6022222,11.6523292 11.3722222,11.2817737 10.7844444,10.5406625 C10.9377778,10.170107 11.0655556,9.88899588 11.1422222,9.71010699 C11.3466667,9.26288477 11.4744444,8.98177366 11.5,8.91788477 C11.6405556,8.57288477 11.9983333,7.70399588 12.075,7.52510699 C12.1516667,7.29510699 12.1644444,7.26955144 12.2794444,7.01399588 L11.6788889,6.13232922 C11.4403704,6.17776131 11.2220439,6.19290535 10.7995534,6.1957098 L8.58666667,6.1962181 C8.06277778,6.1962181 7.80722222,6.18344033 7.46222222,6.15788477 C7.50055556,6.47732922 7.50055556,6.59232922 7.51333333,6.97566255 L6.37611111,6.29844033 C6.23555556,6.74566255 5.98,7.29510699 5.54555556,8.04899588 L5.54555556,7.06510699 C5.31076389,7.10982922 5.12488715,7.12520248 4.78248264,7.12834701 L4.35722222,7.12899588 L4.35722222,6.82232922 C4.35722222,6.36232922 4.37,6.0812181 4.43388889,5.78732922 L2.95166667,5.78732922 C2.99,6.13232922 3.01555556,6.4262181 3.01555556,6.82232922 L3.01555556,7.12899588 L2.35111111,7.12899588 C1.75055556,7.12899588 1.495,7.1162181 1.15,7.06510699 L1.15,8.3812181 C1.52055556,8.33010699 1.82722222,8.31732922 2.35111111,8.31732922 L3.01555556,8.31732922 L3.01555556,9.54399588 L1.98055556,9.54399588 C1.29055556,9.54399588 0.983888889,9.5312181 0.626111111,9.46732922 L0.626111111,10.8089959 C0.996666667,10.745107 1.32888889,10.7323292 1.98055556,10.7323292 L3.32222222,10.7323292 C2.31277778,11.6523292 1.31611111,12.3423292 0.204444444,12.8789959 C0.549444444,13.275107 0.702777778,13.5434403 0.92,14.1184403 C1.32888889,13.850107 1.495,13.7478848 1.80166667,13.5178848 L1.80166667,16.1628848 C1.80166667,16.8017737 1.77611111,17.2617737 1.725,17.5812181 L3.105,17.5812181 L3.105,16.9167737 L5.26444444,16.9167737 L5.26444444,17.3639959 L6.60611111,17.3639959 C6.57256944,17.0621209 6.55859375,16.7308969 6.55562391,16.2590425 L6.555,13.0067737 C6.555,12.240107 6.56777778,11.9845514 6.59333333,11.6395514 C6.35854167,11.6730931 6.11396701,11.6870688 5.72264757,11.6900386 L4.03777778,11.6906625 C4.38277778,11.3712181 4.6,11.1539959 4.98333333,10.7323292 L5.90333333,10.7323292 C6.46555556,10.7323292 6.81055556,10.745107 7.14277778,10.7834403 L7.14277778,9.49288477 C6.84888889,9.5312181 6.50388889,9.55677366 6.10777778,9.55677366 L5.99277778,9.55677366 C6.42722222,8.99455144 6.88722222,8.29177366 7.29611111,7.53788477 C7.39833333,7.3462181 7.41111111,7.32066255 7.51333333,7.15455144 L7.51333333,15.8562181 C7.51333333,16.725107 7.48777778,17.2617737 7.43666667,17.6195514 L8.94444444,17.6195514 Z M4.47222222,9.54399588 L4.37,9.54399588 L4.37,8.31732922 L4.77888889,8.31732922 C5.00888889,8.31732922 5.14944444,8.31732922 5.37944444,8.34288477 C5.16222222,8.68788477 4.85555556,9.09677366 4.47222222,9.54399588 Z M5.26444444,13.735107 L3.09222222,13.735107 L3.09222222,12.7384403 L5.26444444,12.7384403 L5.26444444,13.735107 Z M5.26444444,15.8178848 L3.09222222,15.8178848 L3.09222222,14.770107 L5.26444444,14.770107 L5.26444444,15.8178848 Z M24.0988889,15.1789959 C24.0477778,14.7956625 24.035,14.4506625 24.035,13.9395514 L24.035,10.1573292 C24.035,9.63344033 24.0477778,9.27566255 24.0861111,8.94344033 C23.8816667,8.9775144 23.596454,8.99139643 23.1227824,8.99406066 L21.0961111,8.99455144 C21.178254,8.83939271 21.2278005,8.73638817 21.3052867,8.57377884 L21.4155556,8.34288477 L21.4155556,8.34288477 L23.575,8.34288477 C24.035,8.34288477 24.4438889,8.35566255 24.84,8.39399588 L24.84,7.1162181 C24.4822222,7.16732922 24.1627778,7.19288477 23.575,7.19288477 L22.77,7.19288477 C22.9616667,6.91177366 23.2427778,6.47732922 23.4727778,6.09399588 L22.1055556,5.76177366 C21.8755556,6.29844033 21.62,6.75844033 21.3005556,7.19288477 L20.1761111,7.19288477 C19.8566667,6.55399588 19.665,6.23455144 19.3072222,5.74899588 L18.0677778,6.14510699 C18.3488889,6.49010699 18.5788889,6.83510699 18.7577778,7.19288477 L18.1316667,7.19288477 C17.5055556,7.19288477 17.1222222,7.16732922 16.8155556,7.1162181 L16.8155556,8.39399588 C17.1605556,8.35566255 17.5055556,8.34288477 18.0933333,8.34288477 L19.9716667,8.34288477 C19.8566667,8.62399588 19.8183333,8.71344033 19.665,8.99455144 L18.7066667,8.99455144 C18.1316667,8.99455144 17.7611111,8.98177366 17.4672222,8.9562181 C17.4927778,9.25010699 17.5183333,9.72288477 17.5183333,10.1445514 L17.5183333,13.965107 C17.5183333,14.3995514 17.5055556,14.885107 17.48,15.1789959 C17.9911111,15.1662181 18.2722222,15.1534403 18.6683333,15.1534403 L23.115,15.1534403 C23.4344444,15.1534403 23.6772222,15.1662181 24.0988889,15.1789959 Z M15.525,9.32677366 L16.5727778,8.34288477 C15.9466667,7.51232922 15.3588889,6.8862181 14.3877778,6.04288477 L13.3655556,6.96288477 C14.2344444,7.71677366 14.7711111,8.30455144 15.525,9.32677366 Z M22.7444444,10.7706625 L18.7961111,10.7706625 L18.7961111,10.0806625 L22.7444444,10.0806625 L22.7444444,10.7706625 Z M13.7744444,17.3767737 C13.9277778,17.2362181 13.9788889,17.1978848 14.1322222,17.0828848 C14.6944444,16.6867737 15.2183333,16.2395514 15.5888889,15.8434403 C16.0872222,16.4184403 16.3811111,16.6484403 16.9433333,16.8784403 C17.6333333,17.1595514 18.63,17.2745514 20.4572222,17.2745514 L20.7367384,17.273845 C21.6426002,17.269336 22.7706085,17.2429112 24.84,17.185107 C24.9294444,16.5334403 25.0188889,16.2267737 25.2616667,15.690107 C23.8816667,15.8689959 22.3227778,15.9584403 20.5083333,15.9584403 C18.7194444,15.9584403 17.8505556,15.8562181 17.1733333,15.5623292 C16.79,15.3962181 16.56,15.1789959 16.2788889,14.7189959 L16.2788889,12.0867737 C16.2788889,11.3839959 16.2916667,11.090107 16.3427778,10.6939959 C16.0488889,10.745107 15.755,10.7578848 15.3588889,10.7578848 L14.4261111,10.7578848 C13.9277778,10.7578848 13.7233333,10.745107 13.4038889,10.6939959 L13.4038889,12.0739959 C13.7361111,12.0228848 13.915,12.010107 14.2727778,12.010107 L14.9627778,12.010107 L14.9627778,14.6934403 C14.1577778,15.3834403 13.6211111,15.7539959 13.1355556,15.9328848 L13.7744444,17.3767737 Z M22.7444444,12.4062181 L18.7961111,12.4062181 L18.7961111,11.7289959 L22.7444444,11.7289959 L22.7444444,12.4062181 Z M22.7188889,14.0545514 L18.7833333,14.0545514 L18.7833333,13.3645514 L22.7188889,13.3645514 L22.7188889,14.0545514 Z M30.9988889,17.5812181 C30.9643889,17.2477181 30.9505889,16.9349181 30.9481739,16.3633681 L30.9477778,10.8217737 C31.3438889,10.170107 31.7144444,9.40344033 32.0466667,8.57288477 L30.6666667,8.21510699 C30.475,8.89232922 30.2194444,9.46732922 29.8105556,10.1445514 C29.4272222,10.7962181 28.98,11.3712181 28.3794444,11.9462181 C28.4433333,10.7195514 28.4688889,9.86344033 28.4688889,8.10010699 L36.3016667,8.10010699 C36.9405556,8.10010699 37.3622222,8.11288477 37.7966667,8.16399588 L37.7966667,6.74566255 C37.4644444,6.79677366 36.9788889,6.82232922 36.2377778,6.82232922 L33.0305556,6.82232922 L33.0305556,6.45177366 C33.0305556,6.10677366 33.0433333,5.91510699 33.0944444,5.71066255 L31.5611111,5.71066255 C31.5994444,5.92788477 31.625,6.14510699 31.625,6.43899588 L31.625,6.82232922 L28.5072222,6.82232922 C27.9322222,6.82232922 27.485,6.79677366 27.025,6.75844033 C27.0633333,7.21844033 27.0761111,7.62732922 27.0761111,8.48344033 C27.0761111,10.8217737 26.9866667,12.355107 26.795,13.620107 C26.6033333,14.9106625 26.3477778,15.6773292 25.8238889,16.495107 C26.2838889,16.8145514 26.5777778,17.070107 26.9866667,17.5428848 C27.4594444,16.7889959 27.6894444,16.2012181 27.9194444,15.2812181 C28.1111111,14.540107 28.2644444,13.5434403 28.3283333,12.700107 C28.5072222,12.9556625 28.5711111,13.045107 28.8394444,13.4923292 C29.1461111,13.1984403 29.2866667,13.0323292 29.6316667,12.5467737 C29.6089506,12.8647984 29.5963306,13.2232071 29.5938066,13.7835363 L29.5933333,16.1245514 C29.5933333,16.8145514 29.5677778,17.185107 29.5166667,17.5812181 L30.9988889,17.5812181 Z M34.6533333,17.4534403 C35.995,17.4534403 36.4166667,17.1595514 36.4166667,16.2523292 L36.4166667,11.3328848 L36.6977778,11.3328848 C37.2088889,11.3328848 37.5155556,11.3456625 37.8733333,11.3967737 L37.8733333,10.0295514 C37.6007407,10.0749835 37.3483402,10.0901276 36.8917756,10.092932 L36.4166667,10.0934403 L36.4166667,9.60788477 C36.4166667,9.0712181 36.4294444,8.81566255 36.4805556,8.48344033 L34.9983333,8.48344033 C35.0494444,8.82844033 35.0622222,9.08399588 35.0622222,9.62066255 L35.0622222,10.0934403 L32.5961111,10.0934403 C31.9827778,10.0934403 31.6888889,10.0806625 31.4333333,10.0295514 L31.4333333,11.3967737 C31.8166667,11.3456625 32.0977778,11.3328848 32.6727778,11.3328848 L35.0622222,11.3328848 L35.0622222,15.7028848 C35.0622222,16.0989959 34.9855556,16.150107 34.4488889,16.150107 C34.0655556,16.150107 33.5033333,16.0989959 32.8516667,15.9967737 C33.0944444,16.5334403 33.1966667,16.9039959 33.2605556,17.415107 C34.0144444,17.4406625 34.27,17.4534403 34.6533333,17.4534403 Z M33.2733333,14.9106625 L34.4233333,14.1567737 C33.9377778,13.2495514 33.4394444,12.5595514 32.7238889,11.7673292 L31.6505556,12.470107 C32.3661111,13.3262181 32.7494444,13.8884403 33.2733333,14.9106625 Z M49.1816667,12.3295514 C49.1433333,12.0356625 49.1305556,11.6395514 49.1305556,11.1667737 L49.1305556,7.37177366 C49.1305556,6.84788477 49.1433333,6.55399588 49.1816667,6.20899588 C48.7983333,6.24732922 48.4661111,6.26010699 47.955,6.26010699 L43.355,6.26010699 C42.7927778,6.26010699 42.4477778,6.24732922 42.0516667,6.20899588 C42.09,6.52844033 42.1027778,6.89899588 42.1027778,7.33344033 L42.1027778,11.1412181 C42.1027778,11.6395514 42.09,11.9973292 42.0516667,12.3295514 C42.435,12.2912181 42.7927778,12.2784403 43.3038889,12.2784403 L47.9294444,12.2784403 C48.4277778,12.2784403 48.8494444,12.2912181 49.1816667,12.3295514 Z M45.5272222,17.6706625 C45.4761111,17.3128848 45.4505556,16.9295514 45.4505556,16.2395514 L45.4505556,14.080107 L49.0538889,14.080107 C49.68,14.080107 50.0377778,14.1056625 50.4594444,14.1567737 L50.4594444,12.8278848 C50.1187037,12.8733169 49.808251,12.8884609 49.2588592,12.8912654 L40.9911111,12.8917737 L40.9911111,8.31732922 C40.9911111,7.70399588 41.0038889,7.43566255 41.0422222,7.05232922 L39.5727778,7.05232922 C39.6366667,7.42288477 39.6494444,7.71677366 39.6494444,8.33010699 L39.6494444,12.7895514 C39.6494444,13.4539959 39.6366667,13.7734403 39.5855556,14.1312181 C39.9561111,14.0928848 40.3522222,14.080107 40.9144444,14.080107 L44.0577778,14.080107 L44.0577778,16.2395514 C44.0577778,16.8912181 44.0322222,17.300107 43.9683333,17.6706625 L45.5272222,17.6706625 Z M47.7761111,7.98510699 L43.4316667,7.98510699 L43.4316667,7.37177366 L47.7761111,7.37177366 L47.7761111,7.98510699 Z M47.7761111,9.59510699 L43.4316667,9.59510699 L43.4316667,8.98177366 L47.7761111,8.98177366 L47.7761111,9.59510699 Z M47.7761111,11.2434403 L43.4316667,11.2434403 L43.4316667,10.5917737 L47.7761111,10.5917737 L47.7761111,11.2434403 Z M39.9944444,17.4789959 C41.2466667,16.7889959 42.0261111,16.1117737 42.9588889,14.885107 L41.8088889,14.2589959 C41.4127778,14.7828848 41.1572222,15.0639959 40.6716667,15.4473292 C40.135,15.8689959 39.7261111,16.1117737 39.0105556,16.4312181 C39.445,16.8145514 39.5983333,16.9678848 39.9944444,17.4789959 Z M49.7183333,17.4917737 C50.0633333,16.9806625 50.2166667,16.7762181 50.6383333,16.3289959 C49.2583333,15.7412181 48.645,15.3195514 47.6483333,14.2589959 L46.5877778,14.9489959 C47.1372222,15.5878848 47.4822222,15.9328848 48.0955556,16.4312181 C48.5938889,16.840107 48.9388889,17.0573292 49.7183333,17.4917737 Z" id="都道府県" fill="#454D58"></path>
                </g>
                <g id="Group" transform="translate(29.666963, 104.685309)" fill-rule="nonzero">
                    <rect id="input_copy_15-3" fill="#B8C5D0" x="63.6764946" y="0" width="103.134921" height="23.2445852" rx="1"></rect>
                    <path d="M12.2155556,8.73899588 L12.2155556,7.28232922 C11.7555556,7.3462181 11.2955556,7.37177366 10.6055556,7.37177366 L6.98944444,7.37177366 L6.98944444,6.73288477 C6.98944444,6.38788477 7.015,6.0812181 7.07888889,5.80010699 L5.46888889,5.80010699 C5.50722222,6.00455144 5.54555556,6.37510699 5.54555556,6.74566255 L5.54555556,7.37177366 L2.21055556,7.37177366 C1.55888889,7.37177366 1.09888889,7.3462181 0.600555556,7.28232922 L0.600555556,8.73899588 C1.08611111,8.68788477 1.57166667,8.66232922 2.17222222,8.66232922 L10.6438889,8.66232922 C11.4361111,8.66232922 11.7938889,8.67510699 12.2155556,8.73899588 Z M7.06611111,17.6067737 C7.00222222,17.0956625 6.97666667,16.6612181 6.97666667,16.035107 L6.97666667,11.2945514 L9.76222222,11.2945514 L9.76222222,14.6167737 C9.76222222,14.9489959 9.64722222,15.0128848 9.12333333,15.0128848 C8.855,15.0128848 8.44611111,14.9745514 7.87111111,14.885107 C8.10111111,15.4856625 8.13944444,15.6645514 8.21611111,16.2523292 C8.74,16.2906625 8.98277778,16.3034403 9.27666667,16.3034403 C10.7716667,16.3034403 11.1422222,16.0095514 11.1422222,14.8595514 L11.1422222,11.090107 C11.1422222,10.630107 11.155,10.3362181 11.1933333,9.9912181 C10.8579167,10.0247598 10.5909809,10.0387355 10.1442828,10.0417053 L6.97666667,10.0423292 L6.97666667,9.88899588 C6.97666667,9.4162181 6.98944444,9.10955144 7.02777778,8.9562181 L5.49444444,8.9562181 C5.53277778,9.23732922 5.54555556,9.55677366 5.54555556,9.88899588 L5.54555556,10.0423292 L2.86222222,10.0423292 C2.31277778,10.0423292 1.955,10.0295514 1.54611111,9.9912181 C1.58444444,10.3617737 1.59722222,10.6939959 1.59722222,11.090107 L1.59722222,14.9745514 C1.59722222,15.5623292 1.57166667,15.9839959 1.52055556,16.4695514 L3.09222222,16.4695514 C3.0354321,16.0947366 3.01902606,15.7502099 3.01608139,15.1846924 L3.01555556,11.2945514 L5.54555556,11.2945514 L5.54555556,16.0478848 C5.54555556,16.6356625 5.52,17.0828848 5.45611111,17.6067737 L7.06611111,17.6067737 Z M15.3333333,17.5428848 L15.3333333,16.9423292 L23.46,16.9423292 C24.1116667,16.9423292 24.4822222,16.9678848 24.8527778,17.0189959 L24.8527778,15.5367737 C24.5537778,15.5942737 24.2444278,15.6103737 23.6545928,15.6130187 L15.3333333,15.6134403 L15.3333333,7.72955144 L23.1788889,7.72955144 C23.8816667,7.72955144 24.2266667,7.74232922 24.6738889,7.8062181 L24.6738889,6.3112181 C24.2777778,6.37510699 23.8944444,6.40066255 23.1661111,6.40066255 L15.2311111,6.40066255 C14.6305556,6.40066255 14.2727778,6.38788477 13.8511111,6.33677366 C13.8894444,6.75844033 13.9022222,7.16732922 13.9022222,7.70399588 L13.9022222,16.0606625 C13.9022222,16.6867737 13.8766667,17.1084403 13.8255556,17.5428848 L15.3333333,17.5428848 Z M16.6111111,15.3323292 C18.2466667,14.3739959 19.0772222,13.735107 20.24,12.5595514 C21.2238889,13.390107 21.7605556,13.9012181 22.9233333,15.0895514 L24.0094444,13.9523292 C22.9105556,12.930107 22.1694444,12.2912181 21.1855556,11.5117737 C21.8244444,10.7323292 22.2588889,10.0934403 22.7444444,9.21177366 C22.9361111,8.86677366 22.9616667,8.82844033 23.1405556,8.56010699 L21.735,7.89566255 C21.5305556,8.59844033 20.8916667,9.69732922 20.0994444,10.6684403 C18.9238889,9.81232922 18.9111111,9.79955144 17.1988889,8.67510699 L16.2277778,9.67177366 C17.48,10.4384403 18.285,10.9878848 19.1794444,11.6906625 C18.1316667,12.7128848 17.0838889,13.4539959 15.5888889,14.2334403 C15.9977778,14.6039959 16.3044444,14.9362181 16.6111111,15.3323292 Z M34.6405556,17.4023292 C35.3816667,17.4023292 35.8033333,17.3256625 36.0333333,17.1339959 C36.2888889,16.9423292 36.3783333,16.6484403 36.3783333,16.0095514 L36.3783333,8.62399588 C37.1577778,8.62399588 37.5027778,8.63677366 37.8861111,8.68788477 L37.8861111,7.21844033 C37.4644444,7.26955144 36.9533333,7.29510699 36.2633333,7.29510699 L32.5322222,7.29510699 C32.545,6.80955144 32.5577778,6.56677366 32.5833333,6.27288477 C32.2255556,6.30642644 31.9264757,6.32040213 31.4464106,6.32337197 L27.9322222,6.32399588 C27.3188889,6.32399588 26.9738889,6.3112181 26.5777778,6.27288477 C26.6161111,6.68177366 26.6288889,7.01399588 26.6288889,7.60177366 L26.6288889,14.4762181 C26.6288889,15.1917737 26.6033333,15.7667737 26.5522222,16.2139959 L27.9066667,16.2139959 L27.9066667,15.1023292 L31.2416667,15.1023292 L31.2416667,15.7795514 L32.5961111,15.7795514 C32.5577778,15.4345514 32.5322222,15.000107 32.5322222,14.5528848 L32.5322222,8.62399588 L34.9727778,8.62399588 L34.9727778,15.8178848 C34.9727778,16.0478848 34.8833333,16.0989959 34.4616667,16.0989959 C34.0144444,16.0989959 33.5288889,16.0606625 32.9283333,15.9967737 C33.0944444,16.5206625 33.1583333,16.8273292 33.2094444,17.3639959 C33.6438889,17.3895514 34.2827778,17.4023292 34.6405556,17.4023292 Z M28.9672222,9.97844033 L27.9194444,9.97844033 L27.9194444,7.5762181 L28.9672222,7.5762181 L28.9672222,9.97844033 Z M31.2544444,9.97844033 L30.1938889,9.97844033 L30.1938889,7.5762181 L31.2544444,7.5762181 L31.2544444,9.97844033 Z M28.9672222,13.8373292 L27.9194444,13.8373292 L27.9194444,11.2306625 L28.9672222,11.2306625 L28.9672222,13.8373292 Z M31.2544444,13.8373292 L30.1938889,13.8373292 L30.1938889,11.2306625 L31.2544444,11.2306625 L31.2544444,13.8373292 Z M42.4988889,17.5939959 C42.4477778,17.2234403 42.4222222,16.7889959 42.4222222,16.2012181 L42.4222222,13.0578848 L42.4222033,12.8493439 L42.4222033,12.8493439 L42.4217111,12.5056803 C42.4208593,12.2548951 42.4185877,12.084468 42.41253,11.9295635 L42.4032922,11.7469794 C42.3938272,11.5941193 42.3796296,11.4308477 42.3583333,11.1923292 C42.8311111,12.1889959 43.0483333,12.5467737 43.5977778,13.275107 C43.8533333,12.6362181 43.9811111,12.4062181 44.2877778,11.9845514 C43.5211111,11.205107 42.895,10.3362181 42.4477778,9.4162181 L42.8694444,9.4162181 C43.24,9.4162181 43.585,9.44177366 43.9555556,9.48010699 L43.9555556,8.08732922 C43.585,8.13844033 43.24,8.16399588 42.8438889,8.16399588 L42.4222222,8.16399588 L42.4222222,7.07788477 C42.4222222,6.5412181 42.4477778,6.18344033 42.4988889,5.82566255 L41.0038889,5.82566255 C41.0677778,6.18344033 41.0805556,6.52844033 41.0805556,7.06510699 L41.0805556,8.16399588 L40.3266667,8.16399588 C39.8411111,8.16399588 39.4833333,8.13844033 39.0872222,8.08732922 L39.0872222,9.48010699 C39.4833333,9.44177366 39.8283333,9.4162181 40.3138889,9.4162181 L40.9783333,9.4162181 C40.6205556,10.7067737 39.6494444,12.5212181 38.7294444,13.6456625 C39.0361111,14.0545514 39.2022222,14.3739959 39.445,14.9873292 C40.1988889,13.9778848 40.6077778,13.2112181 41.17,11.7673292 C41.1132099,12.3806625 41.0968038,12.7314993 41.0938592,13.4031652 L41.0933333,16.2139959 C41.0933333,16.7889959 41.0677778,17.2234403 41.0166667,17.5939959 L42.4988889,17.5939959 Z M47.2266667,17.3639959 C47.9677778,17.3639959 48.3638889,17.3256625 48.645,17.2106625 C49.0538889,17.0445514 49.2327778,16.6867737 49.2327778,15.9712181 L49.2327778,9.51844033 L49.3605556,9.51844033 C49.8333333,9.51844033 50.1911111,9.5312181 50.5616667,9.56955144 L50.5616667,8.17677366 C50.2294444,8.22788477 49.8716667,8.25344033 49.3222222,8.25344033 L49.2327778,8.25344033 L49.2327778,7.38455144 C49.2327778,6.74566255 49.2583333,6.3112181 49.3094444,5.87677366 L47.7505556,5.87677366 C47.8144444,6.28566255 47.84,6.75844033 47.84,7.37177366 L47.84,8.25344033 L45.6294444,8.25344033 C45.0033333,8.25344033 44.5816667,8.22788477 44.2111111,8.17677366 L44.2111111,9.59510699 C44.5944444,9.54399588 45.08,9.51844033 45.6422222,9.51844033 L47.84,9.51844033 L47.84,15.690107 C47.84,15.9839959 47.7377778,16.0478848 47.3161111,16.0478848 C46.8816667,16.0478848 46.3833333,16.0095514 45.8977778,15.9456625 C45.8211111,15.9328848 45.6805556,15.920107 45.5144444,15.8945514 C45.7316667,16.3673292 45.8211111,16.7123292 45.8977778,17.3128848 C46.6031111,17.3537737 46.8177778,17.3619514 47.0455289,17.363587 L47.2266667,17.3639959 L47.2266667,17.3639959 Z M45.8594444,14.2078848 L47.0733333,13.4539959 C46.5877778,12.1634403 46.2427778,11.5117737 45.4633333,10.3873292 L44.2622222,10.975107 C45.0416667,12.1123292 45.3611111,12.7767737 45.8594444,14.2078848 Z" id="市区町村" fill="#454D58"></path>
                </g>
                <g id="Group" transform="translate(26.016170, 136.629753)" fill-rule="nonzero">
                    <rect id="input_copy_15-3" fill="#B8C5D0" x="67.3272882" y="0" width="103.134921" height="23.2445852" rx="1"></rect>
                    <path d="M3.565,16.706853 L3.565,16.1190752 L9.23833333,16.1190752 L9.23833333,16.706853 L10.6438889,16.706853 C10.5879861,16.3378947 10.5712153,16.0472002 10.5678961,15.5779663 L10.5672222,12.0301864 C10.9888889,12.2601864 11.1933333,12.3624086 11.73,12.6051864 C11.9727778,12.0301864 12.1261111,11.7490752 12.4711111,11.2890752 C10.8611111,10.8801864 9.545,10.2029641 8.42055556,9.23185302 L10.6183333,9.23185302 C11.155,9.23185302 11.6022222,9.25740858 12.0111111,9.30851969 L12.0111111,7.99240858 C11.6661111,8.04351969 11.27,8.06907525 10.6183333,8.06907525 L9.50666667,8.06907525 C9.82611111,7.59629747 10.0561111,7.1746308 10.2733333,6.74018636 L8.93166667,6.40796414 C8.70166667,7.04685302 8.49722222,7.48129747 8.12666667,8.06907525 L6.97666667,8.06907525 L6.97666667,6.52296414 C8.89,6.31296414 9.70615942,6.20948587 10.368557,6.11527037 L10.5544444,6.08851969 L10.5544444,6.08851969 C10.7333333,6.06296414 10.8483333,6.03740858 10.8866667,6.03740858 C11.1422222,5.99907525 11.1422222,5.99907525 11.27,5.98629747 L10.3116667,4.81074191 C9.58333333,5.02796414 8.44611111,5.2196308 6.97666667,5.36018636 C5.07197917,5.53987386 4.20049479,5.5960262 2.78292887,5.60234334 L2.25514632,5.60268369 C1.98607682,5.60170213 1.72216049,5.59728512 1.265,5.57740858 C1.54611111,5.99907525 1.63555556,6.20351969 1.81444444,6.79129747 C2.60666667,6.79129747 2.73444444,6.77851969 3.52666667,6.75296414 L2.61944444,7.0596308 C3.00277778,7.68574191 3.06666667,7.80074191 3.19444444,8.06907525 L2.13388889,8.06907525 C1.50777778,8.06907525 1.08611111,8.04351969 0.728333333,7.99240858 L0.728333333,9.30851969 C1.11166667,9.25740858 1.59722222,9.23185302 2.13388889,9.23185302 L4.22944444,9.23185302 C3.20722222,10.2157419 2.03166667,10.8674086 0.434444444,11.3401864 C0.792222222,11.7490752 1.00944444,12.106853 1.17555556,12.6051864 C1.725,12.3240752 1.89111111,12.2346308 2.23611111,12.0429641 L2.23611111,15.3651864 C2.23611111,15.8379641 2.21055556,16.3235197 2.17222222,16.706853 L3.565,16.706853 Z M5.66055556,8.06907525 L4.52333333,8.06907525 C4.33166667,7.6346308 4.05055556,7.09796414 3.83333333,6.74018636 C5.13666667,6.68907525 5.13666667,6.68907525 5.66055556,6.65074191 L5.66055556,8.06907525 Z M9.04666667,11.1357419 L3.69277778,11.1357419 C4.54888889,10.5351864 5.08555556,10.036853 5.68611111,9.29574191 C5.67333333,9.51296414 5.66055556,9.66629747 5.66055556,9.74296414 L5.66055556,10.0751864 C5.66055556,10.381853 5.64777778,10.5224086 5.59666667,10.8801864 L7.02777778,10.8801864 C6.99492063,10.7378054 6.980839,10.5203224 6.97748623,10.2196907 L6.97666667,9.71740858 C6.97666667,9.64074191 6.97666667,9.62796414 6.95111111,9.4746308 C6.95111111,9.46951969 6.95111111,9.4562308 6.95029333,9.43476414 L6.94456889,9.3458308 C6.94293333,9.32691969 6.94088889,9.30596414 6.93833333,9.28296414 C7.56444444,10.0240752 8.13944444,10.5224086 9.04666667,11.1357419 Z M5.68611111,13.0524086 L3.565,13.0524086 L3.565,12.2474086 L5.68611111,12.2474086 L5.68611111,13.0524086 Z M9.23833333,13.0651864 L6.97666667,13.0651864 L6.97666667,12.2601864 L9.23833333,12.2601864 L9.23833333,13.0651864 Z M5.68611111,14.9690752 L3.565,14.9690752 L3.565,14.176853 L5.68611111,14.176853 L5.68611111,14.9690752 Z M9.22555556,14.981853 L6.96388889,14.981853 L6.96388889,14.176853 L9.22555556,14.176853 L9.22555556,14.981853 Z M21.0833333,16.4129641 C24.725,16.4129641 24.9933333,16.2340752 25.1466667,13.6785197 C24.7122222,13.601853 24.1627778,13.4357419 23.7538889,13.256853 C23.7538889,14.1257419 23.6772222,14.5601864 23.5238889,14.7774086 C23.3413492,15.0329641 22.9617826,15.1030826 21.6125342,15.109181 L21.4027778,15.1096308 C20.47,15.1096308 19.9972222,15.0840752 19.665,15.0201864 C19.3838889,14.9690752 19.2944444,14.8796308 19.2944444,14.6240752 L19.2944444,10.2157419 L20.5338889,9.8196308 L20.5338889,12.5285197 C20.5338889,13.1290752 20.5211111,13.4101864 20.47,13.8446308 L21.9522222,13.8446308 C21.9011111,13.4485197 21.8755556,13.0907419 21.8755556,12.566853 L21.8755556,9.38518636 L23.345,8.92518636 C23.3066667,10.1646308 23.2555556,10.956853 23.1916667,11.3785197 C23.1405556,11.646853 23.0638889,11.6979641 22.7444444,11.6979641 C22.5527778,11.6979641 22.3227778,11.6596308 22.0288889,11.5957419 C22.2205556,11.991853 22.31,12.3624086 22.3738889,12.911853 C22.6020635,12.930107 22.7259297,12.9353224 22.83862,12.9368125 L22.9744444,12.9374086 L22.9744444,12.9374086 C23.9072222,12.9374086 24.2522222,12.7201864 24.4183333,11.991853 C24.5461111,11.4424086 24.6355556,10.2796308 24.6994444,8.47796414 C24.725,7.78796414 24.7377778,7.69851969 24.7633333,7.13629747 C24.4183333,7.2896308 24.2138889,7.36629747 23.7155556,7.5196308 L21.8755556,8.0946308 L21.8755556,6.30574191 C21.8755556,5.83296414 21.9011111,5.42407525 21.9522222,5.00240858 L20.47,5.00240858 C20.5147222,5.37136691 20.5300955,5.62292941 20.53324,6.07382026 L20.5338889,8.50351969 L19.2944444,8.8996308 L19.2944444,7.50685302 C19.2944444,6.98296414 19.32,6.61240858 19.3711111,6.20351969 L17.8633333,6.20351969 C17.9272222,6.62518636 17.94,6.9446308 17.94,7.55796414 L17.94,9.30851969 L17.825,9.34685302 C17.3905556,9.48740858 16.9433333,9.57685302 16.5855556,9.62796414 L16.905,11.0207419 C17.1605556,10.9057419 17.3011111,10.8546308 17.6844444,10.726853 C17.7355556,10.7140752 17.825,10.6885197 17.94,10.6501864 L17.94,15.0457419 C17.94,16.1701864 18.5022222,16.4129641 21.0833333,16.4129641 Z M13.455,15.3140752 L13.5239052,15.2820809 L13.5239052,15.2820809 L13.655127,15.2228838 C13.7670573,15.1737193 13.8958333,15.1208114 14.1194444,15.0329641 C15.4227778,14.5474086 16.1127778,14.2407419 17.2755556,13.6146308 L17.2372222,12.2601864 C16.9816667,12.3908036 16.8119273,12.4759888 16.6584537,12.5505171 L16.431749,12.6586637 C16.3158025,12.7130876 16.1894444,12.7712975 16.0233333,12.8479641 L16.0233333,9.37240858 L16.2661111,9.37240858 C16.6622222,9.37240858 16.8922222,9.38518636 17.1605556,9.42351969 L17.1605556,8.08185302 C16.9788272,8.1159271 16.8172908,8.12980913 16.4515905,8.13247336 L16.0233333,8.13296414 L16.0233333,6.49740858 C16.0233333,5.78185302 16.0361111,5.42407525 16.1,5.01518636 L14.6305556,5.01518636 C14.6816667,5.41129747 14.7072222,5.82018636 14.7072222,6.4846308 L14.7072222,8.13296414 L14.4133333,8.13296414 C13.915,8.13296414 13.6977778,8.12018636 13.4166667,8.06907525 L13.4166667,9.43629747 C13.7233333,9.38518636 13.9277778,9.37240858 14.4133333,9.37240858 L14.7072222,9.37240858 L14.7072222,13.3846308 C13.9405556,13.6785197 13.57,13.7935197 13.1866667,13.8446308 L13.455,15.3140752 Z M28.7755556,16.6301864 L29.9638889,15.5185197 C28.98,14.3046308 28.2644444,13.601853 27.0888889,12.7074086 L26.0027778,13.716853 C27.1144444,14.5985197 27.8427778,15.3651864 28.7755556,16.6301864 Z M41.9804762,14.7646308 C41.9293651,14.4579641 41.9165873,14.2662975 41.9165873,13.6912975 L44.3443651,13.6912975 C44.8171429,13.6912975 45.1749206,13.7040752 45.4815873,13.7424086 L45.4815873,12.5412975 C45.2020734,12.5860197 44.9519085,12.601393 44.5342099,12.6045375 L41.9165873,12.6051864 L41.9165873,11.8512975 L43.8843651,11.8512975 C44.3443651,11.8512975 44.6638095,11.8640752 44.9704762,11.9024086 L44.9704762,10.7907419 C44.6126984,10.8290752 44.3443651,10.841853 43.8971429,10.841853 L41.9165873,10.841853 L41.9165873,10.1135197 L43.8715873,10.1135197 C44.2038095,10.1135197 44.4338095,10.1262975 44.7660317,10.1390752 C44.7404762,9.94740858 44.7276984,9.66629747 44.7276984,9.37240858 L44.7276984,8.40129747 C45.1365873,8.40129747 45.3538095,8.41407525 45.6349206,8.46518636 L45.6349206,7.27685302 C45.3538095,7.34074191 45.1365873,7.35351969 44.7276984,7.35351969 L44.7276984,6.42074191 C44.7276984,6.10129747 44.7404762,5.85851969 44.7660317,5.61574191 C44.4849206,5.64129747 44.1910317,5.65407525 43.7949206,5.65407525 L41.9165873,5.65407525 C41.9165873,5.2196308 41.9421429,5.05351969 41.9804762,4.81074191 L40.5749206,4.81074191 C40.6260317,5.1046308 40.6388095,5.24518636 40.6388095,5.65407525 L39.2204762,5.65407525 C38.773254,5.65407525 38.5560317,5.64129747 38.2365873,5.60296414 L38.2365873,6.74018636 C38.5049206,6.70185302 38.7988095,6.68907525 39.1438095,6.68907525 L40.6388095,6.68907525 L40.6388095,7.35351969 L38.7221429,7.35351969 C38.0704762,7.35351969 37.8915873,7.34074191 37.5721429,7.2896308 L37.5721429,8.45240858 C37.8915873,8.41407525 38.1215873,8.40129747 38.6710317,8.40129747 L40.6388095,8.40129747 L40.6388095,9.09129747 L39.1565873,9.09129747 C38.7221429,9.09129747 38.5304762,9.07851969 38.2621429,9.04018636 L38.2621429,10.151853 C38.543254,10.1262975 38.7349206,10.1135197 39.0799206,10.1135197 L40.6388095,10.1135197 L40.6388095,10.841853 L39.118254,10.841853 C38.6965873,10.841853 38.428254,10.8290752 38.0960317,10.7907419 L38.0960317,11.9151864 C38.4154762,11.8640752 38.7349206,11.8512975 39.118254,11.8512975 L40.6388095,11.8512975 L40.6388095,12.6051864 L38.8115873,12.6051864 C38.3388095,12.6051864 37.9938095,12.5924086 37.6999206,12.5412975 L37.6999206,13.7424086 C38.0193651,13.7040752 38.2621429,13.6912975 38.7988095,13.6912975 L40.6388095,13.6912975 C40.6388095,14.1896308 40.6260317,14.4324086 40.5749206,14.7646308 L41.9804762,14.7646308 Z M34.5565873,16.6557419 C35.2849206,16.0040752 35.6299206,15.5951864 36.1921429,14.751853 C37.4699206,15.9657419 38.7860317,16.361853 41.5971429,16.361853 C42.9899206,16.361853 44.2165873,16.3490752 45.4176984,16.3235197 C45.5071429,15.6462975 45.5454762,15.4801864 45.7626984,14.9051864 C44.5488095,15.0074086 42.9643651,15.0712975 41.4054762,15.0712975 C41.2138095,15.0712975 40.7665873,15.0585197 40.4343651,15.0329641 C39.3099206,14.9562975 38.7476984,14.8540752 38.1726984,14.6112975 C37.6743651,14.406853 37.2526984,14.1129641 36.8054762,13.6785197 C37.3804762,12.451853 37.6488095,11.3657419 37.7893651,9.5896308 C37.8149206,9.3596308 37.8276984,9.25740858 37.853254,9.02740858 C37.6766883,9.05528737 37.5744661,9.06289067 37.3106544,9.0649643 L36.3454762,9.06574191 C36.6393651,8.58018636 37.2143651,7.46851969 37.4699206,6.86796414 C37.6743651,6.38240858 37.6871429,6.35685302 37.7893651,6.21629747 L37.1760317,5.38574191 C36.9829453,5.41981599 36.7898589,5.43369802 36.4083134,5.43636225 L34.9015873,5.43685302 C34.5310317,5.43685302 34.288254,5.42407525 33.9943651,5.37296414 L33.9943651,6.72740858 C34.3010317,6.67629747 34.518254,6.66351969 34.863254,6.66351969 L36.1410317,6.66351969 C35.9110317,7.2896308 35.8088095,7.53240858 35.3360317,8.42685302 C35.0293651,9.0146308 35.0293651,9.0146308 34.2371429,10.3051864 C34.5438095,10.2796308 34.9143651,10.266853 35.2721429,10.266853 L36.4860317,10.266853 C36.3454762,11.2762975 36.2176984,11.761853 35.9238095,12.4901864 C35.6426984,11.991853 35.5149206,11.6724086 35.2465873,10.8801864 L34.1093651,11.4807419 C34.2371429,11.7235197 34.3265873,11.9279641 34.3904762,12.0429641 C34.5438095,12.3624086 34.6588095,12.566853 34.6843651,12.6179641 C34.9015873,13.0524086 35.0676984,13.3462975 35.2976984,13.6785197 C34.8249206,14.3940752 34.4415873,14.8029641 33.6493651,15.4801864 C34.0710317,15.9146308 34.288254,16.1957419 34.5565873,16.6557419 Z M43.4754762,7.35351969 L41.9165873,7.35351969 L41.9165873,6.68907525 L43.4754762,6.68907525 L43.4754762,7.35351969 Z M43.4754762,9.09129747 L41.9165873,9.09129747 L41.9165873,8.40129747 L43.4754762,8.40129747 L43.4754762,9.09129747 Z M50.1071429,16.706853 C50.0560317,16.2212975 50.0304762,15.7740752 50.0304762,15.2374086 L50.0304762,12.336853 C50.3683774,12.1977172 50.5516833,12.1204196 50.8990321,11.9726951 L51.2443651,11.8257419 L51.2443651,11.8257419 L51.2315873,10.5479641 C50.6693651,10.8035197 50.4776984,10.8674086 50.0304762,11.0207419 L50.0304762,8.63129747 L50.3371429,8.63129747 C50.6310317,8.63129747 50.7971429,8.63129747 51.0526984,8.65685302 C50.8738095,8.86129747 50.7460317,8.98907525 50.4393651,9.27018636 C50.8610317,9.53851969 51.1038095,9.75574191 51.4999206,10.2412975 C52.1260317,9.5896308 52.5860317,8.8996308 53.0204762,7.99240858 L53.6210317,7.99240858 C53.2504762,9.30851969 52.7649206,10.2540752 51.9854762,11.186853 C51.5126984,11.7490752 51.1804762,12.0429641 50.4776984,12.4774086 C50.9504762,12.8479641 51.1804762,13.1162975 51.423254,13.5890752 C53.1610317,12.2090752 54.2088095,10.496853 54.8476984,7.99240858 L55.3715873,7.99240858 C55.0904762,9.53851969 54.7326984,10.6757419 54.1449206,11.8640752 C53.3654762,13.3974086 52.3943651,14.4579641 50.8226984,15.4929641 C51.3849206,15.8635197 51.6021429,16.0807419 51.8960317,16.5407419 C53.5571429,15.2246308 54.4515873,14.1640752 55.218254,12.6179641 C55.8315873,11.3785197 56.2276984,10.0879641 56.5854762,7.99240858 L56.7388095,7.99240858 C56.7004762,10.5735197 56.5854762,12.6562975 56.368254,14.0362975 C56.2276984,14.9435197 56.0360317,15.211853 55.5249206,15.211853 C55.103254,15.211853 54.5921429,15.1479641 53.9404762,15.0074086 C54.1704762,15.4929641 54.2726984,15.9146308 54.2726984,16.4512975 C54.8988095,16.5024086 55.218254,16.5279641 55.4993651,16.5279641 C56.6238095,16.5279641 57.173254,16.2340752 57.4671429,15.4674086 C57.8121429,14.5857419 57.978254,12.6562975 58.0676984,8.31185302 C58.093254,7.09796414 58.093254,7.09796414 58.1443651,6.70185302 C57.9399206,6.7359271 57.6849961,6.74980913 57.253952,6.75247336 L53.5443651,6.75296414 C53.6210317,6.53574191 53.6721429,6.39518636 53.7104762,6.28018636 C54.0171429,5.38574191 54.0171429,5.38574191 54.1193651,5.11740858 L52.6371429,4.86185302 C52.5860317,5.38574191 52.3943651,6.03740858 52.0749206,6.8296308 C51.8321429,7.44296414 51.538254,7.99240858 51.1676984,8.50351969 L51.1676984,7.27685302 C50.9815079,7.32066255 50.8047052,7.33630881 50.5004972,7.33988509 L50.0304762,7.34074191 L50.0304762,5.89685302 C50.0304762,5.47518636 50.0560317,5.18129747 50.1071429,4.84907525 L48.5993651,4.84907525 C48.663254,5.20685302 48.6888095,5.50074191 48.6888095,5.89685302 L48.6888095,7.34074191 L48.203254,7.34074191 C48.2415873,6.86796414 48.2543651,6.80407525 48.3054762,6.03740858 L47.0276984,5.89685302 C47.053254,6.12685302 47.053254,6.24185302 47.053254,6.43351969 C47.053254,6.95740858 46.9893651,7.59629747 46.8871429,8.23518636 C46.7338095,9.07851969 46.6443651,9.43629747 46.4015873,10.0112975 C46.8871429,10.2157419 47.1426984,10.3562975 47.5643651,10.7012975 C47.8199206,9.83240858 47.9349206,9.34685302 48.0499206,8.63129747 L48.6888095,8.63129747 L48.6888095,11.4679641 C47.4621429,11.8512975 47.1554762,11.9279641 46.5676984,11.9662975 L46.8615873,13.486853 C47.1171429,13.371853 47.1938095,13.3335197 47.5388095,13.2185197 C47.7815873,13.141853 48.1649206,13.0140752 48.6888095,12.8224086 L48.6888095,15.2374086 C48.6888095,15.7996308 48.663254,16.2596308 48.5993651,16.706853 L50.1071429,16.706853 Z" id="番地、建物" fill="#454D58"></path>
                </g>
                <rect id="CTA_copy_9-3" fill="#89969F" fill-rule="nonzero" x="154.702381" y="173.564815" width="42.1666667" height="15.515873" rx="1"></rect>
            </g>
        </g>
    </g>
</svg>