<?xml version="1.0" encoding="UTF-8"?>
<svg width="230px" height="215px" viewBox="0 0 230 215" version="1.1" xmlns="http://www.w3.org/2000/svg" xmlns:xlink="http://www.w3.org/1999/xlink">
    <title>address1</title>
    <g id="Page-1" stroke="none" stroke-width="1" fill="none" fill-rule="evenodd">
        <g id="address1" transform="translate(-24.000000, -48.000000)">
            <g transform="translate(24.000000, 48.000000)" id="Register">
                <rect id="base-65" fill="#B8C5D0" fill-rule="nonzero" x="0" y="0" width="230" height="214.484127" rx="4"></rect>
                <path d="M15.3333333,21.0529101 L214.666667,21.0529101 C218.90085,21.0529101 222.333333,23.6136518 222.333333,26.7724868 L222.333333,201.219577 C222.333333,204.378412 218.90085,206.939153 214.666667,206.939153 L15.3333333,206.939153 C11.0991503,206.939153 7.66666667,204.378412 7.66666667,201.219577 L7.66666667,26.7724868 C7.66666667,23.6136518 11.0991503,21.0529101 15.3333333,21.0529101 Z M10.4047619,6.75396825 C11.9169701,6.75396825 13.1428571,7.97985525 13.1428571,9.49206349 C13.1428571,11.0042717 11.9169701,12.2301587 10.4047619,12.2301587 C8.89255366,12.2301587 7.66666667,11.0042717 7.66666667,9.49206349 C7.66666667,7.97985525 8.89255366,6.75396825 10.4047619,6.75396825 Z M19.1666667,6.75396825 C20.6788749,6.75396825 21.9047619,7.97985525 21.9047619,9.49206349 C21.9047619,11.0042717 20.6788749,12.2301587 19.1666667,12.2301587 C17.6544584,12.2301587 16.4285714,11.0042717 16.4285714,9.49206349 C16.4285714,7.97985525 17.6544584,6.75396825 19.1666667,6.75396825 Z M27.3809524,6.75396825 C28.8931606,6.75396825 30.1190476,7.97985525 30.1190476,9.49206349 C30.1190476,11.0042717 28.8931606,12.2301587 27.3809524,12.2301587 C25.8687441,12.2301587 24.6428571,11.0042717 24.6428571,9.49206349 C24.6428571,7.97985525 25.8687441,6.75396825 27.3809524,6.75396825 Z" id="inner_browser-59" fill="#F6F8F9"></path>
                <g id="Group" transform="translate(29.666963, 42.621817)" fill-rule="nonzero">
                    <rect id="input_copy_15-3" fill="#B8C5D0" x="63.6764946" y="0" width="103.134921" height="23.2445852" rx="1"></rect>
                    <path d="M0.843333333,17.3384403 C1.02222222,17.2873292 1.08611111,17.2873292 1.36722222,17.2489959 C1.45986111,17.2394125 1.62118056,17.2202459 1.825625,17.19489 L2.16144097,17.1526385 C2.76439236,17.0758969 3.55701389,16.9710792 4.14,16.8912181 C5.43055556,16.7123292 5.98,16.610107 7.20666667,16.3417737 L7.19388889,15.1789959 C6.00555556,15.3962181 5.66055556,15.460107 4.70222222,15.5878848 L4.70222222,14.3995514 L6.12055556,14.3995514 C6.74666667,14.3995514 6.97666667,14.4123292 7.30888889,14.4506625 L7.30888889,13.1856625 C7.10444444,13.2112181 6.97666667,13.2239959 6.68277778,13.2367737 L6.68277778,11.9078848 C6.95111111,11.9078848 7.10444444,11.9206625 7.46222222,11.9589959 L7.46222222,10.6812181 C7.15555556,10.7195514 7.06611111,10.7195514 6.68277778,10.7323292 L6.68277778,9.49288477 C6.98944444,9.50566255 7.10444444,9.51844033 7.32166667,9.54399588 L7.32166667,8.2662181 C7.01116667,8.3122181 6.82486667,8.3271681 6.31564667,8.3296981 L4.70222222,8.33010699 L4.70222222,7.3462181 C5.48166667,7.2312181 6.37611111,7.06510699 7.14277778,6.87344033 L6.41444444,5.74899588 C5.48166667,6.15788477 3.42444444,6.4262181 0.702777778,6.47732922 C0.971111111,6.89899588 1.07333333,7.14177366 1.18833333,7.64010699 C1.36722222,7.63158847 1.52658951,7.62377983 1.67181842,7.61632613 L2.07047325,7.59467489 C2.55981481,7.56627983 2.90907407,7.53788477 3.46277778,7.48677366 L3.46277778,8.33010699 L1.94222222,8.33010699 C1.25222222,8.33010699 1.06055556,8.31732922 0.715555556,8.2662181 L0.715555556,9.54399588 C0.983888889,9.51844033 1.15,9.50566255 1.53333333,9.49288477 L1.53333333,10.7323292 C0.983888889,10.7323292 0.766666667,10.7195514 0.434444444,10.6556625 L0.434444444,11.9717737 C0.766666667,11.9206625 0.983888889,11.9078848 1.53333333,11.9078848 L1.53333333,13.2367737 C1.13722222,13.2239959 0.983888889,13.2112181 0.741111111,13.1856625 L0.741111111,14.4634403 C1.11166667,14.4123292 1.40555556,14.3995514 1.955,14.3995514 L3.46277778,14.3995514 L3.46277778,15.7284403 C2.22248148,15.8476996 1.46081235,15.9113045 0.938827819,15.9192551 L0.830555556,15.920107 C0.792222222,15.920107 0.728333333,15.920107 0.651666667,15.9073292 L0.843333333,17.3384403 Z M9.09777778,17.6195514 C9.03388889,17.2489959 9.00833333,16.7889959 9.00833333,16.035107 L9.00833333,7.48677366 L10.695,7.48677366 C10.3372222,8.59844033 9.87722222,9.71010699 9.36611111,10.7067737 C9.97944444,11.3584403 10.2222222,11.6778848 10.4777778,12.1634403 C10.7716667,12.7256625 10.9377778,13.3389959 10.9505556,13.8628848 L10.9505556,13.9395514 L10.9505556,13.9395514 L10.9633333,14.0034403 C10.9633333,14.1823292 10.8866667,14.3612181 10.7716667,14.4378848 C10.6566667,14.5273292 10.5033333,14.5528848 10.1838889,14.5528848 C9.81333333,14.5528848 9.58333333,14.540107 9.26388889,14.4762181 C9.45555556,14.9106625 9.49388889,15.1278848 9.51944444,15.8689959 C9.78777778,15.8817737 9.91555556,15.8817737 10.0305556,15.8817737 C10.7205556,15.8817737 11.0911111,15.8434403 11.3722222,15.7284403 C11.9216667,15.5112181 12.2666667,14.8978848 12.2666667,14.1056625 C12.2666667,13.620107 12.2283333,13.2623292 12.1133333,12.8789959 C11.8833333,12.0484403 11.5383333,11.4734403 10.7588889,10.5789959 C11.2061111,9.73566255 11.7044444,8.6112181 12.1388889,7.48677366 C12.19,7.33344033 12.3177778,7.05232922 12.3561111,6.97566255 L11.7172222,6.17066255 C11.5047917,6.20420422 11.2727951,6.21817991 10.8842708,6.22114974 L8.72722222,6.22177366 C8.28,6.22177366 8.02444444,6.20899588 7.67944444,6.18344033 C7.71777778,6.51566255 7.73055556,6.87344033 7.73055556,7.24399588 L7.73055556,16.1756625 C7.73055556,16.840107 7.71777778,17.2234403 7.65388889,17.6195514 L9.09777778,17.6195514 Z M3.46277778,10.7323292 L2.72166667,10.7323292 L2.72166667,9.49288477 L3.46277778,9.49288477 L3.46277778,10.7323292 Z M5.49444444,10.7323292 L4.70222222,10.7323292 L4.70222222,9.49288477 L5.49444444,9.49288477 L5.49444444,10.7323292 Z M3.46277778,13.2367737 L2.72166667,13.2367737 L2.72166667,11.9078848 L3.46277778,11.9078848 L3.46277778,13.2367737 Z M5.49444444,13.2367737 L4.70222222,13.2367737 L4.70222222,11.9078848 L5.49444444,11.9078848 L5.49444444,13.2367737 Z M15.8572222,17.6323292 C15.8061111,17.1339959 15.7933333,16.7378848 15.7933333,16.150107 L15.7933333,8.73899588 C16.1127778,8.02344033 16.3172222,7.4612181 16.4961111,6.87344033 C16.6111111,6.47732922 16.6622222,6.3112181 16.7516667,6.10677366 L15.3844444,5.67232922 C15.2822222,6.27288477 15.18,6.6562181 14.9116667,7.41010699 C14.4005556,8.82844033 13.7872222,9.88899588 12.9822222,10.7706625 C13.2761111,11.2945514 13.4166667,11.6395514 13.5827778,12.2656625 C13.9661111,11.780107 14.1961111,11.435107 14.49,10.8984403 C14.4593333,11.3073292 14.4532,11.5117737 14.4519733,11.9566448 L14.4516667,16.0095514 C14.4516667,16.6995514 14.4261111,17.185107 14.375,17.6323292 L15.8572222,17.6323292 Z M16.6366667,17.5428848 C17.9527778,17.1595514 18.7322222,16.7889959 19.5116667,16.1628848 C20.93,16.9039959 22.2716667,17.2106625 24.7122222,17.3639959 C24.8783333,16.7378848 25.0061111,16.3673292 25.2105556,15.9456625 L24.7888889,15.9456625 L24.7888889,15.9456625 C24.2394444,15.9456625 23.575,15.9073292 22.9233333,15.8178848 C21.9138889,15.7028848 21.2622222,15.5239959 20.4188889,15.1662181 C20.8022222,14.5656625 20.9427778,14.1695514 21.0577778,13.4667737 L23.4344444,13.4667737 C23.8944444,13.4667737 24.1372222,13.4795514 24.4694444,13.5306625 C24.4311111,13.0706625 24.4183333,12.8534403 24.4183333,12.1634403 L24.4183333,9.7612181 L24.4183629,9.58522048 L24.4183629,9.58522048 L24.4191319,9.29782401 C24.4215278,8.92107922 24.4311111,8.75816255 24.4694444,8.39399588 C24.2011111,8.4387181 23.9327778,8.45409137 23.5018023,8.4572359 L21.2877778,8.45788477 L21.2877778,7.5762181 L23.7538889,7.5762181 C24.2522222,7.5762181 24.6611111,7.58899588 25.0316667,7.64010699 L25.0316667,6.27288477 C24.61,6.32399588 24.1372222,6.34955144 23.575,6.34955144 L18.1572222,6.34955144 C17.595,6.34955144 17.135,6.32399588 16.7133333,6.27288477 L16.7133333,7.64010699 C17.0966667,7.58899588 17.4288889,7.5762181 17.9527778,7.5762181 L19.9844444,7.5762181 L19.9844444,8.45788477 L18.055,8.45788477 C17.5311111,8.45788477 17.1988889,8.44510699 16.8666667,8.39399588 C16.905,8.87955144 16.9177778,9.12232922 16.9177778,9.72288477 L16.9177778,12.2145514 C16.9177778,12.8023292 16.905,13.045107 16.8666667,13.5306625 C17.1861111,13.4795514 17.4288889,13.4667737 17.7866667,13.4667737 L19.7416667,13.4667737 C19.6266667,13.9267737 19.5116667,14.195107 19.2688889,14.540107 C18.86,14.2717737 18.6938889,14.1312181 18.2977778,13.7478848 L17.1861111,14.4506625 C17.2592929,14.509905 17.3125161,14.5529904 17.3605551,14.5921013 L17.4540988,14.6686336 C17.5494858,14.7470859 17.6635354,14.8421272 17.9144444,15.0512181 C18.0422222,15.1789959 18.1572222,15.2684403 18.3488889,15.4089959 C17.71,15.8434403 17.2627778,16.0223292 16.1,16.265107 C16.3683333,16.7378848 16.5344444,17.1212181 16.6366667,17.5428848 Z M19.9588889,10.3617737 L18.2594444,10.3617737 L18.2594444,9.54399588 L19.9716667,9.54399588 L19.9716417,9.67137435 L19.9716417,9.67137435 L19.9709928,9.85665213 C19.9698698,9.98842297 19.966875,10.0902459 19.9588889,10.3617737 Z M23.0638889,10.3617737 L21.2622222,10.3617737 C21.275,9.94010699 21.275,9.94010699 21.2877778,9.54399588 L23.0638889,9.54399588 L23.0638889,10.3617737 Z M19.8822222,12.355107 L18.2594444,12.355107 L18.2594444,11.4223292 L19.9333333,11.4223292 C19.9205556,11.8567737 19.9077778,12.0867737 19.8822222,12.355107 Z M23.0638889,12.355107 L21.1855556,12.355107 C21.2111111,12.010107 21.2111111,11.8695514 21.2366667,11.4223292 L23.0638889,11.4223292 L23.0638889,12.355107 Z M29.1205556,17.6195514 L29.1205556,17.0317737 L34.7938889,17.0317737 L34.7938889,17.6195514 L36.1994444,17.6195514 C36.1435417,17.2505931 36.1267708,16.9598987 36.1234516,16.4906647 L36.1227778,12.9428848 C36.5444444,13.1728848 36.7488889,13.275107 37.2855556,13.5178848 C37.5283333,12.9428848 37.6816667,12.6617737 38.0266667,12.2017737 C36.4166667,11.7928848 35.1005556,11.1156625 33.9761111,10.1445514 L36.1738889,10.1445514 C36.7105556,10.1445514 37.1577778,10.170107 37.5666667,10.2212181 L37.5666667,8.90510699 C37.2216667,8.9562181 36.8255556,8.98177366 36.1738889,8.98177366 L35.0622222,8.98177366 C35.3816667,8.50899588 35.6116667,8.08732922 35.8288889,7.65288477 L34.4872222,7.32066255 C34.2572222,7.95955144 34.0527778,8.39399588 33.6822222,8.98177366 L32.5322222,8.98177366 L32.5322222,7.43566255 C34.4455556,7.22566255 35.261715,7.12218429 35.9241126,7.02796879 L36.11,7.0012181 L36.11,7.0012181 C36.2888889,6.97566255 36.4038889,6.95010699 36.4422222,6.95010699 C36.6977778,6.91177366 36.6977778,6.91177366 36.8255556,6.89899588 L35.8672222,5.72344033 C35.1388889,5.94066255 34.0016667,6.13232922 32.5322222,6.27288477 C30.6275347,6.45257227 29.7560503,6.50872461 28.3384844,6.51504175 L27.8107019,6.5153821 C27.5416324,6.51440055 27.277716,6.50998354 26.8205556,6.49010699 C27.1016667,6.91177366 27.1911111,7.1162181 27.37,7.70399588 C28.1622222,7.70399588 28.29,7.6912181 29.0822222,7.66566255 L28.175,7.97232922 C28.5583333,8.59844033 28.6222222,8.71344033 28.75,8.98177366 L27.6894444,8.98177366 C27.0633333,8.98177366 26.6416667,8.9562181 26.2838889,8.90510699 L26.2838889,10.2212181 C26.6672222,10.170107 27.1527778,10.1445514 27.6894444,10.1445514 L29.785,10.1445514 C28.7627778,11.1284403 27.5872222,11.780107 25.99,12.2528848 C26.3477778,12.6617737 26.565,13.0195514 26.7311111,13.5178848 C27.2805556,13.2367737 27.4466667,13.1473292 27.7916667,12.9556625 L27.7916667,16.2778848 C27.7916667,16.7506625 27.7661111,17.2362181 27.7277778,17.6195514 L29.1205556,17.6195514 Z M31.2161111,8.98177366 L30.0788889,8.98177366 C29.8872222,8.54732922 29.6061111,8.01066255 29.3888889,7.65288477 C30.6922222,7.60177366 30.6922222,7.60177366 31.2161111,7.56344033 L31.2161111,8.98177366 Z M34.6022222,12.0484403 L29.2483333,12.0484403 C30.1044444,11.4478848 30.6411111,10.9495514 31.2416667,10.2084403 C31.2288889,10.4256625 31.2161111,10.5789959 31.2161111,10.6556625 L31.2161111,10.9878848 C31.2161111,11.2945514 31.2033333,11.435107 31.1522222,11.7928848 L32.5833333,11.7928848 C32.5504762,11.6505038 32.5363946,11.4330208 32.5330418,11.1323891 L32.5322222,10.630107 C32.5322222,10.5534403 32.5322222,10.5406625 32.5066667,10.3873292 C32.5066667,10.3822181 32.5066667,10.3689292 32.5058489,10.3474625 L32.5001244,10.2585292 C32.4984889,10.2396181 32.4964444,10.2186625 32.4938889,10.1956625 C33.12,10.9367737 33.695,11.435107 34.6022222,12.0484403 Z M31.2416667,13.965107 L29.1205556,13.965107 L29.1205556,13.160107 L31.2416667,13.160107 L31.2416667,13.965107 Z M34.7938889,13.9778848 L32.5322222,13.9778848 L32.5322222,13.1728848 L34.7938889,13.1728848 L34.7938889,13.9778848 Z M31.2416667,15.8817737 L29.1205556,15.8817737 L29.1205556,15.0895514 L31.2416667,15.0895514 L31.2416667,15.8817737 Z M34.7811111,15.8945514 L32.5194444,15.8945514 L32.5194444,15.0895514 L34.7811111,15.0895514 L34.7811111,15.8945514 Z M48.99,9.95288477 C48.9571429,9.65717049 48.9430612,9.41778273 48.9397085,9.05769527 L48.9388889,7.20566255 C48.9388889,6.7712181 48.9516667,6.45177366 48.99,6.14510699 C48.6795,6.19110699 48.33795,6.20605699 47.74179,6.20858699 L41.8983333,6.20899588 C41.3105556,6.20899588 40.9016667,6.1962181 40.4544444,6.14510699 C40.4927778,6.50288477 40.5055556,6.7712181 40.5055556,7.20566255 L40.5055556,8.86677366 C40.5055556,9.31399588 40.4927778,9.59510699 40.4544444,9.95288477 C40.8377778,9.91455144 41.1444444,9.90177366 41.7705556,9.90177366 L47.6738889,9.90177366 C48.3255556,9.90177366 48.6066667,9.91455144 48.99,9.95288477 Z M47.5333333,8.7262181 L41.8727778,8.7262181 L41.8727778,7.41010699 L47.5333333,7.41010699 L47.5333333,8.7262181 Z M45.8977778,17.4789959 C47.2394444,17.4789959 47.725,17.3384403 48.1211111,16.8528848 C48.4661111,16.4312181 48.7088889,15.4345514 48.9261111,13.5945514 C48.9435354,13.444703 48.9581084,13.321466 48.9703485,13.2199158 L48.991872,13.0442718 C49.0105923,12.8946249 49.0213636,12.8185918 49.0283333,12.7767737 C48.7178333,12.8112737 48.4487333,12.8250737 47.9043233,12.8274887 L42.895,12.8278848 C43.0611111,12.4956625 43.125,12.3423292 43.3166667,11.895107 L49.0666667,11.895107 C49.7055556,11.895107 50.2038889,11.9206625 50.5744444,11.9717737 L50.5744444,10.5917737 C50.2038889,10.6428848 49.7183333,10.6684403 49.0666667,10.6684403 L40.3777778,10.6684403 C39.7261111,10.6684403 39.2405556,10.6428848 38.8827778,10.5917737 L38.8827778,11.9717737 C39.2661111,11.9206625 39.7516667,11.895107 40.365,11.895107 L41.7833333,11.895107 C41.4,12.8278848 40.8888889,13.7095514 40.1605556,14.6806625 L41.6938889,14.9617737 C42.0005556,14.4889959 42.1027778,14.3228848 42.2816667,14.0034403 L47.4055556,14.0034403 C47.2777778,15.115107 47.1372222,15.690107 46.9455556,15.9456625 C46.7922222,16.1373292 46.5111111,16.2139959 45.885,16.2139959 C45.425,16.2139959 44.4922222,16.1373292 43.6233333,16.035107 C43.8661111,16.5717737 43.9555556,16.955107 43.9683333,17.4023292 C44.7477778,17.4534403 45.2333333,17.4789959 45.8977778,17.4789959 Z" id="郵便番号" fill="#454D58"></path>
                </g>
                <g id="Group" transform="translate(29.666963, 75.478960)" fill-rule="nonzero">
                    <rect id="input_copy_15-3" fill="#B8C5D0" x="63.6764946" y="0" width="103.134921" height="23.2445852" rx="1"></rect>
                    <path d="M3.25833333,17.5428848 C3.19444444,17.0573292 3.16888889,16.6228848 3.16888889,16.0606625 L3.16888889,8.87955144 C3.68,7.81899588 4.03777778,6.93732922 4.30611111,6.0812181 L2.83666667,5.71066255 C2.77277778,6.14510699 2.61944444,6.66899588 2.35111111,7.37177366 C1.82722222,8.68788477 1.16277778,9.7612181 0.242777778,10.745107 C0.536666667,11.3456625 0.613333333,11.550107 0.817777778,12.2912181 C1.22666667,11.8184403 1.39277778,11.5884403 1.81444444,10.9239959 C1.79282051,11.6592096 1.78034517,11.9552911 1.77701841,12.2302605 L1.77611111,16.0478848 C1.77611111,16.6995514 1.76333333,17.0317737 1.68666667,17.5428848 L3.25833333,17.5428848 Z M12.2794444,17.1467737 L12.2794444,15.7156625 C11.8577778,15.7667737 11.3338889,15.7923292 10.7588889,15.7923292 L8.54833333,15.7923292 L8.54833333,13.1089959 L10.1455556,13.1089959 C10.6822222,13.1089959 11.1422222,13.1345514 11.5511111,13.1728848 L11.5511111,11.7673292 C11.1422222,11.8184403 10.695,11.8439959 10.1327778,11.8439959 L8.54833333,11.8439959 L8.54833333,9.60788477 L10.465,9.60788477 C11.0144444,9.60788477 11.5,9.63344033 11.9472222,9.67177366 L11.9472222,8.24066255 C11.5255556,8.29177366 11.0655556,8.31732922 10.4266667,8.31732922 L8.49722222,8.31732922 L9.45555556,7.3462181 C8.59944444,6.72010699 7.79444444,6.24732922 6.77222222,5.76177366 L5.78833333,6.70732922 C6.82333333,7.2312181 7.64111111,7.74232922 8.31833333,8.31732922 L5.43055556,8.31732922 C4.75333333,8.31732922 4.38277778,8.30455144 3.98666667,8.24066255 L3.98666667,9.67177366 C4.43388889,9.63344033 4.90666667,9.60788477 5.44333333,9.60788477 L7.11722222,9.60788477 L7.11722222,11.8439959 L5.76277778,11.8439959 C5.20055556,11.8439959 4.75333333,11.8184403 4.35722222,11.7673292 L4.35722222,13.1728848 C4.77888889,13.1345514 5.22611111,13.1089959 5.76277778,13.1089959 L7.11722222,13.1089959 L7.11722222,15.7923292 L5.04722222,15.7923292 C4.49777778,15.7923292 3.98666667,15.7667737 3.57777778,15.7156625 L3.57777778,17.1467737 C4.05055556,17.1084403 4.47222222,17.0828848 5.09833333,17.0828848 L10.7461111,17.0828848 C11.385,17.0828848 11.8194444,17.1084403 12.2794444,17.1467737 Z M18.4511111,17.5556625 C18.8855556,17.0828848 19.0772222,16.8656625 19.2688889,16.5973292 C19.7544444,15.9839959 20.1122222,15.2939959 20.3805556,14.5273292 C20.7,13.6073292 20.8661111,12.5978848 20.9427778,11.0389959 L22.4505556,11.0389959 L22.4505556,16.0862181 C22.4505556,16.7123292 22.425,17.070107 22.3738889,17.4789959 L23.8816667,17.4789959 C23.8248765,17.1268971 23.8084705,16.8353745 23.8055258,16.308278 L23.805,11.0389959 L23.9966667,11.0389959 C24.4822222,11.0389959 24.7761111,11.0517737 25.1211111,11.1028848 L25.1211111,9.62066255 C24.7917284,9.67745267 24.5431139,9.69385871 24.0701433,9.69680338 L20.9811111,9.69732922 L20.9811111,8.10010699 C22.3227778,7.90844033 23.1533333,7.72955144 24.4694444,7.32066255 C24.7505556,7.2312181 24.8272222,7.20566255 25.0572222,7.15455144 L24.3288889,5.8512181 C23.3066667,6.4262181 21.1344444,6.91177366 19.5627778,6.92455144 L19.5759798,7.0831007 C19.6041059,7.45782401 19.6138889,7.8924681 19.6138889,8.94344033 C19.6138889,11.2689959 19.4861111,12.700107 19.205,13.6712181 C18.8855556,14.770107 18.3744444,15.575107 17.3905556,16.495107 C17.8377778,16.8145514 18.1061111,17.0828848 18.4511111,17.5556625 Z M19.1283333,7.74232922 L19.1283333,6.3112181 C18.8263131,6.35768275 18.5454132,6.37246696 17.9304287,6.37477099 L14.9755556,6.37510699 C14.3111111,6.37510699 13.9661111,6.36232922 13.5955556,6.3112181 L13.5955556,7.74232922 C13.9533333,7.6912181 14.3111111,7.67844033 14.8988889,7.67844033 L17.7994444,7.67844033 C18.4638889,7.67844033 18.7961111,7.6912181 19.1283333,7.74232922 Z M14.2727778,17.530107 C15.0266667,16.2139959 15.3077778,15.115107 15.41,12.9812181 L17.5311111,12.9812181 C18.2338889,12.9939959 18.6555556,13.0067737 18.7833333,13.0067737 C18.7634568,12.7583169 18.7590398,12.6180768 18.7580582,12.3034876 L18.7577778,9.78677366 C18.7577778,9.28844033 18.7705556,8.90510699 18.7961111,8.63677366 C18.4495139,8.65913477 18.1713976,8.6717129 17.7135189,8.67450803 L15.4355556,8.67510699 C14.8222222,8.67510699 14.5027778,8.66232922 14.0811111,8.63677366 C14.1322222,9.10955144 14.145,9.55677366 14.145,10.4128848 C14.145,13.8628848 13.9277778,15.1662181 13.1355556,16.5206625 C13.6083333,16.8145514 13.8894444,17.0573292 14.2727778,17.530107 Z M17.4416667,11.7673292 L15.4355556,11.7673292 C15.4435417,11.535732 15.4465365,11.4039612 15.4476595,11.2191576 L15.4483084,10.9621545 C15.4483333,10.9118171 15.4483333,10.8569125 15.4483333,10.7962181 L15.4483333,9.8762181 L17.4416667,9.8762181 L17.4416667,11.7673292 Z" id="住所" fill="#454D58"></path>
                </g>
                <rect id="CTA_copy_9-3" fill="#89969F" fill-rule="nonzero" x="154.702381" y="114.239418" width="42.1666667" height="15.515873" rx="1"></rect>
            </g>
        </g>
    </g>
</svg>