<?xml version="1.0" encoding="UTF-8"?>
<svg width="230px" height="215px" viewBox="0 0 230 215" version="1.1" xmlns="http://www.w3.org/2000/svg" xmlns:xlink="http://www.w3.org/1999/xlink">
    <title>address2</title>
    <g id="Page-1" stroke="none" stroke-width="1" fill="none" fill-rule="evenodd">
        <g id="address2" transform="translate(-24.000000, -48.000000)">
            <g transform="translate(24.000000, 48.000000)" id="Register">
                <rect id="base-65" fill="#B8C5D0" fill-rule="nonzero" x="0" y="0" width="230" height="214.484127" rx="4"></rect>
                <path d="M15.3333333,21.0529101 L214.666667,21.0529101 C218.90085,21.0529101 222.333333,23.6136518 222.333333,26.7724868 L222.333333,201.219577 C222.333333,204.378412 218.90085,206.939153 214.666667,206.939153 L15.3333333,206.939153 C11.0991503,206.939153 7.66666667,204.378412 7.66666667,201.219577 L7.66666667,26.7724868 C7.66666667,23.6136518 11.0991503,21.0529101 15.3333333,21.0529101 Z M10.4047619,6.75396825 C11.9169701,6.75396825 13.1428571,7.97985525 13.1428571,9.49206349 C13.1428571,11.0042717 11.9169701,12.2301587 10.4047619,12.2301587 C8.89255366,12.2301587 7.66666667,11.0042717 7.66666667,9.49206349 C7.66666667,7.97985525 8.89255366,6.75396825 10.4047619,6.75396825 Z M19.1666667,6.75396825 C20.6788749,6.75396825 21.9047619,7.97985525 21.9047619,9.49206349 C21.9047619,11.0042717 20.6788749,12.2301587 19.1666667,12.2301587 C17.6544584,12.2301587 16.4285714,11.0042717 16.4285714,9.49206349 C16.4285714,7.97985525 17.6544584,6.75396825 19.1666667,6.75396825 Z M27.3809524,6.75396825 C28.8931606,6.75396825 30.1190476,7.97985525 30.1190476,9.49206349 C30.1190476,11.0042717 28.8931606,12.2301587 27.3809524,12.2301587 C25.8687441,12.2301587 24.6428571,11.0042717 24.6428571,9.49206349 C24.6428571,7.97985525 25.8687441,6.75396825 27.3809524,6.75396825 Z" id="inner_browser-59" fill="#F6F8F9"></path>
                <g id="Group" transform="translate(29.666963, 39.883722)" fill-rule="nonzero">
                    <rect id="input_copy_15-3" fill="#B8C5D0" x="63.6764946" y="0" width="103.134921" height="23.2445852" rx="1"></rect>
                    <path d="M0.843333333,17.3384403 C1.02222222,17.2873292 1.08611111,17.2873292 1.36722222,17.2489959 C1.45986111,17.2394125 1.62118056,17.2202459 1.825625,17.19489 L2.16144097,17.1526385 C2.76439236,17.0758969 3.55701389,16.9710792 4.14,16.8912181 C5.43055556,16.7123292 5.98,16.610107 7.20666667,16.3417737 L7.19388889,15.1789959 C6.00555556,15.3962181 5.66055556,15.460107 4.70222222,15.5878848 L4.70222222,14.3995514 L6.12055556,14.3995514 C6.74666667,14.3995514 6.97666667,14.4123292 7.30888889,14.4506625 L7.30888889,13.1856625 C7.10444444,13.2112181 6.97666667,13.2239959 6.68277778,13.2367737 L6.68277778,11.9078848 C6.95111111,11.9078848 7.10444444,11.9206625 7.46222222,11.9589959 L7.46222222,10.6812181 C7.15555556,10.7195514 7.06611111,10.7195514 6.68277778,10.7323292 L6.68277778,9.49288477 C6.98944444,9.50566255 7.10444444,9.51844033 7.32166667,9.54399588 L7.32166667,8.2662181 C7.01116667,8.3122181 6.82486667,8.3271681 6.31564667,8.3296981 L4.70222222,8.33010699 L4.70222222,7.3462181 C5.48166667,7.2312181 6.37611111,7.06510699 7.14277778,6.87344033 L6.41444444,5.74899588 C5.48166667,6.15788477 3.42444444,6.4262181 0.702777778,6.47732922 C0.971111111,6.89899588 1.07333333,7.14177366 1.18833333,7.64010699 C1.36722222,7.63158847 1.52658951,7.62377983 1.67181842,7.61632613 L2.07047325,7.59467489 C2.55981481,7.56627983 2.90907407,7.53788477 3.46277778,7.48677366 L3.46277778,8.33010699 L1.94222222,8.33010699 C1.25222222,8.33010699 1.06055556,8.31732922 0.715555556,8.2662181 L0.715555556,9.54399588 C0.983888889,9.51844033 1.15,9.50566255 1.53333333,9.49288477 L1.53333333,10.7323292 C0.983888889,10.7323292 0.766666667,10.7195514 0.434444444,10.6556625 L0.434444444,11.9717737 C0.766666667,11.9206625 0.983888889,11.9078848 1.53333333,11.9078848 L1.53333333,13.2367737 C1.13722222,13.2239959 0.983888889,13.2112181 0.741111111,13.1856625 L0.741111111,14.4634403 C1.11166667,14.4123292 1.40555556,14.3995514 1.955,14.3995514 L3.46277778,14.3995514 L3.46277778,15.7284403 C2.22248148,15.8476996 1.46081235,15.9113045 0.938827819,15.9192551 L0.830555556,15.920107 C0.792222222,15.920107 0.728333333,15.920107 0.651666667,15.9073292 L0.843333333,17.3384403 Z M9.09777778,17.6195514 C9.03388889,17.2489959 9.00833333,16.7889959 9.00833333,16.035107 L9.00833333,7.48677366 L10.695,7.48677366 C10.3372222,8.59844033 9.87722222,9.71010699 9.36611111,10.7067737 C9.97944444,11.3584403 10.2222222,11.6778848 10.4777778,12.1634403 C10.7716667,12.7256625 10.9377778,13.3389959 10.9505556,13.8628848 L10.9505556,13.9395514 L10.9505556,13.9395514 L10.9633333,14.0034403 C10.9633333,14.1823292 10.8866667,14.3612181 10.7716667,14.4378848 C10.6566667,14.5273292 10.5033333,14.5528848 10.1838889,14.5528848 C9.81333333,14.5528848 9.58333333,14.540107 9.26388889,14.4762181 C9.45555556,14.9106625 9.49388889,15.1278848 9.51944444,15.8689959 C9.78777778,15.8817737 9.91555556,15.8817737 10.0305556,15.8817737 C10.7205556,15.8817737 11.0911111,15.8434403 11.3722222,15.7284403 C11.9216667,15.5112181 12.2666667,14.8978848 12.2666667,14.1056625 C12.2666667,13.620107 12.2283333,13.2623292 12.1133333,12.8789959 C11.8833333,12.0484403 11.5383333,11.4734403 10.7588889,10.5789959 C11.2061111,9.73566255 11.7044444,8.6112181 12.1388889,7.48677366 C12.19,7.33344033 12.3177778,7.05232922 12.3561111,6.97566255 L11.7172222,6.17066255 C11.5047917,6.20420422 11.2727951,6.21817991 10.8842708,6.22114974 L8.72722222,6.22177366 C8.28,6.22177366 8.02444444,6.20899588 7.67944444,6.18344033 C7.71777778,6.51566255 7.73055556,6.87344033 7.73055556,7.24399588 L7.73055556,16.1756625 C7.73055556,16.840107 7.71777778,17.2234403 7.65388889,17.6195514 L9.09777778,17.6195514 Z M3.46277778,10.7323292 L2.72166667,10.7323292 L2.72166667,9.49288477 L3.46277778,9.49288477 L3.46277778,10.7323292 Z M5.49444444,10.7323292 L4.70222222,10.7323292 L4.70222222,9.49288477 L5.49444444,9.49288477 L5.49444444,10.7323292 Z M3.46277778,13.2367737 L2.72166667,13.2367737 L2.72166667,11.9078848 L3.46277778,11.9078848 L3.46277778,13.2367737 Z M5.49444444,13.2367737 L4.70222222,13.2367737 L4.70222222,11.9078848 L5.49444444,11.9078848 L5.49444444,13.2367737 Z M15.8572222,17.6323292 C15.8061111,17.1339959 15.7933333,16.7378848 15.7933333,16.150107 L15.7933333,8.73899588 C16.1127778,8.02344033 16.3172222,7.4612181 16.4961111,6.87344033 C16.6111111,6.47732922 16.6622222,6.3112181 16.7516667,6.10677366 L15.3844444,5.67232922 C15.2822222,6.27288477 15.18,6.6562181 14.9116667,7.41010699 C14.4005556,8.82844033 13.7872222,9.88899588 12.9822222,10.7706625 C13.2761111,11.2945514 13.4166667,11.6395514 13.5827778,12.2656625 C13.9661111,11.780107 14.1961111,11.435107 14.49,10.8984403 C14.4593333,11.3073292 14.4532,11.5117737 14.4519733,11.9566448 L14.4516667,16.0095514 C14.4516667,16.6995514 14.4261111,17.185107 14.375,17.6323292 L15.8572222,17.6323292 Z M16.6366667,17.5428848 C17.9527778,17.1595514 18.7322222,16.7889959 19.5116667,16.1628848 C20.93,16.9039959 22.2716667,17.2106625 24.7122222,17.3639959 C24.8783333,16.7378848 25.0061111,16.3673292 25.2105556,15.9456625 L24.7888889,15.9456625 L24.7888889,15.9456625 C24.2394444,15.9456625 23.575,15.9073292 22.9233333,15.8178848 C21.9138889,15.7028848 21.2622222,15.5239959 20.4188889,15.1662181 C20.8022222,14.5656625 20.9427778,14.1695514 21.0577778,13.4667737 L23.4344444,13.4667737 C23.8944444,13.4667737 24.1372222,13.4795514 24.4694444,13.5306625 C24.4311111,13.0706625 24.4183333,12.8534403 24.4183333,12.1634403 L24.4183333,9.7612181 L24.4183629,9.58522048 L24.4183629,9.58522048 L24.4191319,9.29782401 C24.4215278,8.92107922 24.4311111,8.75816255 24.4694444,8.39399588 C24.2011111,8.4387181 23.9327778,8.45409137 23.5018023,8.4572359 L21.2877778,8.45788477 L21.2877778,7.5762181 L23.7538889,7.5762181 C24.2522222,7.5762181 24.6611111,7.58899588 25.0316667,7.64010699 L25.0316667,6.27288477 C24.61,6.32399588 24.1372222,6.34955144 23.575,6.34955144 L18.1572222,6.34955144 C17.595,6.34955144 17.135,6.32399588 16.7133333,6.27288477 L16.7133333,7.64010699 C17.0966667,7.58899588 17.4288889,7.5762181 17.9527778,7.5762181 L19.9844444,7.5762181 L19.9844444,8.45788477 L18.055,8.45788477 C17.5311111,8.45788477 17.1988889,8.44510699 16.8666667,8.39399588 C16.905,8.87955144 16.9177778,9.12232922 16.9177778,9.72288477 L16.9177778,12.2145514 C16.9177778,12.8023292 16.905,13.045107 16.8666667,13.5306625 C17.1861111,13.4795514 17.4288889,13.4667737 17.7866667,13.4667737 L19.7416667,13.4667737 C19.6266667,13.9267737 19.5116667,14.195107 19.2688889,14.540107 C18.86,14.2717737 18.6938889,14.1312181 18.2977778,13.7478848 L17.1861111,14.4506625 C17.2592929,14.509905 17.3125161,14.5529904 17.3605551,14.5921013 L17.4540988,14.6686336 C17.5494858,14.7470859 17.6635354,14.8421272 17.9144444,15.0512181 C18.0422222,15.1789959 18.1572222,15.2684403 18.3488889,15.4089959 C17.71,15.8434403 17.2627778,16.0223292 16.1,16.265107 C16.3683333,16.7378848 16.5344444,17.1212181 16.6366667,17.5428848 Z M19.9588889,10.3617737 L18.2594444,10.3617737 L18.2594444,9.54399588 L19.9716667,9.54399588 L19.9716417,9.67137435 L19.9716417,9.67137435 L19.9709928,9.85665213 C19.9698698,9.98842297 19.966875,10.0902459 19.9588889,10.3617737 Z M23.0638889,10.3617737 L21.2622222,10.3617737 C21.275,9.94010699 21.275,9.94010699 21.2877778,9.54399588 L23.0638889,9.54399588 L23.0638889,10.3617737 Z M19.8822222,12.355107 L18.2594444,12.355107 L18.2594444,11.4223292 L19.9333333,11.4223292 C19.9205556,11.8567737 19.9077778,12.0867737 19.8822222,12.355107 Z M23.0638889,12.355107 L21.1855556,12.355107 C21.2111111,12.010107 21.2111111,11.8695514 21.2366667,11.4223292 L23.0638889,11.4223292 L23.0638889,12.355107 Z M29.1205556,17.6195514 L29.1205556,17.0317737 L34.7938889,17.0317737 L34.7938889,17.6195514 L36.1994444,17.6195514 C36.1435417,17.2505931 36.1267708,16.9598987 36.1234516,16.4906647 L36.1227778,12.9428848 C36.5444444,13.1728848 36.7488889,13.275107 37.2855556,13.5178848 C37.5283333,12.9428848 37.6816667,12.6617737 38.0266667,12.2017737 C36.4166667,11.7928848 35.1005556,11.1156625 33.9761111,10.1445514 L36.1738889,10.1445514 C36.7105556,10.1445514 37.1577778,10.170107 37.5666667,10.2212181 L37.5666667,8.90510699 C37.2216667,8.9562181 36.8255556,8.98177366 36.1738889,8.98177366 L35.0622222,8.98177366 C35.3816667,8.50899588 35.6116667,8.08732922 35.8288889,7.65288477 L34.4872222,7.32066255 C34.2572222,7.95955144 34.0527778,8.39399588 33.6822222,8.98177366 L32.5322222,8.98177366 L32.5322222,7.43566255 C34.4455556,7.22566255 35.261715,7.12218429 35.9241126,7.02796879 L36.11,7.0012181 L36.11,7.0012181 C36.2888889,6.97566255 36.4038889,6.95010699 36.4422222,6.95010699 C36.6977778,6.91177366 36.6977778,6.91177366 36.8255556,6.89899588 L35.8672222,5.72344033 C35.1388889,5.94066255 34.0016667,6.13232922 32.5322222,6.27288477 C30.6275347,6.45257227 29.7560503,6.50872461 28.3384844,6.51504175 L27.8107019,6.5153821 C27.5416324,6.51440055 27.277716,6.50998354 26.8205556,6.49010699 C27.1016667,6.91177366 27.1911111,7.1162181 27.37,7.70399588 C28.1622222,7.70399588 28.29,7.6912181 29.0822222,7.66566255 L28.175,7.97232922 C28.5583333,8.59844033 28.6222222,8.71344033 28.75,8.98177366 L27.6894444,8.98177366 C27.0633333,8.98177366 26.6416667,8.9562181 26.2838889,8.90510699 L26.2838889,10.2212181 C26.6672222,10.170107 27.1527778,10.1445514 27.6894444,10.1445514 L29.785,10.1445514 C28.7627778,11.1284403 27.5872222,11.780107 25.99,12.2528848 C26.3477778,12.6617737 26.565,13.0195514 26.7311111,13.5178848 C27.2805556,13.2367737 27.4466667,13.1473292 27.7916667,12.9556625 L27.7916667,16.2778848 C27.7916667,16.7506625 27.7661111,17.2362181 27.7277778,17.6195514 L29.1205556,17.6195514 Z M31.2161111,8.98177366 L30.0788889,8.98177366 C29.8872222,8.54732922 29.6061111,8.01066255 29.3888889,7.65288477 C30.6922222,7.60177366 30.6922222,7.60177366 31.2161111,7.56344033 L31.2161111,8.98177366 Z M34.6022222,12.0484403 L29.2483333,12.0484403 C30.1044444,11.4478848 30.6411111,10.9495514 31.2416667,10.2084403 C31.2288889,10.4256625 31.2161111,10.5789959 31.2161111,10.6556625 L31.2161111,10.9878848 C31.2161111,11.2945514 31.2033333,11.435107 31.1522222,11.7928848 L32.5833333,11.7928848 C32.5504762,11.6505038 32.5363946,11.4330208 32.5330418,11.1323891 L32.5322222,10.630107 C32.5322222,10.5534403 32.5322222,10.5406625 32.5066667,10.3873292 C32.5066667,10.3822181 32.5066667,10.3689292 32.5058489,10.3474625 L32.5001244,10.2585292 C32.4984889,10.2396181 32.4964444,10.2186625 32.4938889,10.1956625 C33.12,10.9367737 33.695,11.435107 34.6022222,12.0484403 Z M31.2416667,13.965107 L29.1205556,13.965107 L29.1205556,13.160107 L31.2416667,13.160107 L31.2416667,13.965107 Z M34.7938889,13.9778848 L32.5322222,13.9778848 L32.5322222,13.1728848 L34.7938889,13.1728848 L34.7938889,13.9778848 Z M31.2416667,15.8817737 L29.1205556,15.8817737 L29.1205556,15.0895514 L31.2416667,15.0895514 L31.2416667,15.8817737 Z M34.7811111,15.8945514 L32.5194444,15.8945514 L32.5194444,15.0895514 L34.7811111,15.0895514 L34.7811111,15.8945514 Z M48.99,9.95288477 C48.9571429,9.65717049 48.9430612,9.41778273 48.9397085,9.05769527 L48.9388889,7.20566255 C48.9388889,6.7712181 48.9516667,6.45177366 48.99,6.14510699 C48.6795,6.19110699 48.33795,6.20605699 47.74179,6.20858699 L41.8983333,6.20899588 C41.3105556,6.20899588 40.9016667,6.1962181 40.4544444,6.14510699 C40.4927778,6.50288477 40.5055556,6.7712181 40.5055556,7.20566255 L40.5055556,8.86677366 C40.5055556,9.31399588 40.4927778,9.59510699 40.4544444,9.95288477 C40.8377778,9.91455144 41.1444444,9.90177366 41.7705556,9.90177366 L47.6738889,9.90177366 C48.3255556,9.90177366 48.6066667,9.91455144 48.99,9.95288477 Z M47.5333333,8.7262181 L41.8727778,8.7262181 L41.8727778,7.41010699 L47.5333333,7.41010699 L47.5333333,8.7262181 Z M45.8977778,17.4789959 C47.2394444,17.4789959 47.725,17.3384403 48.1211111,16.8528848 C48.4661111,16.4312181 48.7088889,15.4345514 48.9261111,13.5945514 C48.9435354,13.444703 48.9581084,13.321466 48.9703485,13.2199158 L48.991872,13.0442718 C49.0105923,12.8946249 49.0213636,12.8185918 49.0283333,12.7767737 C48.7178333,12.8112737 48.4487333,12.8250737 47.9043233,12.8274887 L42.895,12.8278848 C43.0611111,12.4956625 43.125,12.3423292 43.3166667,11.895107 L49.0666667,11.895107 C49.7055556,11.895107 50.2038889,11.9206625 50.5744444,11.9717737 L50.5744444,10.5917737 C50.2038889,10.6428848 49.7183333,10.6684403 49.0666667,10.6684403 L40.3777778,10.6684403 C39.7261111,10.6684403 39.2405556,10.6428848 38.8827778,10.5917737 L38.8827778,11.9717737 C39.2661111,11.9206625 39.7516667,11.895107 40.365,11.895107 L41.7833333,11.895107 C41.4,12.8278848 40.8888889,13.7095514 40.1605556,14.6806625 L41.6938889,14.9617737 C42.0005556,14.4889959 42.1027778,14.3228848 42.2816667,14.0034403 L47.4055556,14.0034403 C47.2777778,15.115107 47.1372222,15.690107 46.9455556,15.9456625 C46.7922222,16.1373292 46.5111111,16.2139959 45.885,16.2139959 C45.425,16.2139959 44.4922222,16.1373292 43.6233333,16.035107 C43.8661111,16.5717737 43.9555556,16.955107 43.9683333,17.4023292 C44.7477778,17.4534403 45.2333333,17.4789959 45.8977778,17.4789959 Z" id="郵便番号" fill="#454D58"></path>
                </g>
                <g id="Group" transform="translate(29.666963, 72.740865)" fill-rule="nonzero">
                    <rect id="input_copy_15-3" fill="#B8C5D0" x="63.6764946" y="0" width="103.134921" height="23.2445852" rx="1"></rect>
                    <path d="M8.94444444,17.6195514 C8.89333333,17.1595514 8.86777778,16.5717737 8.86777778,15.8817737 L8.86777778,7.42288477 L10.6694444,7.42288477 C10.3244444,8.54732922 9.91555556,9.56955144 9.35333333,10.6556625 C10.0561111,11.3584403 10.3883333,11.895107 10.6311111,12.6489959 C10.7461111,13.0195514 10.81,13.4667737 10.81,13.8884403 C10.81,14.3867737 10.5161111,14.5912181 9.78777778,14.5912181 C9.63444444,14.5912181 9.50666667,14.5784403 9.11055556,14.5528848 C9.34055556,14.9873292 9.40444444,15.2556625 9.45555556,15.9712181 C10.4394444,15.9712181 10.7972222,15.9328848 11.1933333,15.7667737 C11.8833333,15.4984403 12.2283333,14.8723292 12.2283333,13.9012181 C12.2283333,13.4028848 12.1133333,12.8662181 11.8705556,12.2912181 C11.6022222,11.6523292 11.3722222,11.2817737 10.7844444,10.5406625 C10.9377778,10.170107 11.0655556,9.88899588 11.1422222,9.71010699 C11.3466667,9.26288477 11.4744444,8.98177366 11.5,8.91788477 C11.6405556,8.57288477 11.9983333,7.70399588 12.075,7.52510699 C12.1516667,7.29510699 12.1644444,7.26955144 12.2794444,7.01399588 L11.6788889,6.13232922 C11.4403704,6.17776131 11.2220439,6.19290535 10.7995534,6.1957098 L8.58666667,6.1962181 C8.06277778,6.1962181 7.80722222,6.18344033 7.46222222,6.15788477 C7.50055556,6.47732922 7.50055556,6.59232922 7.51333333,6.97566255 L6.37611111,6.29844033 C6.23555556,6.74566255 5.98,7.29510699 5.54555556,8.04899588 L5.54555556,7.06510699 C5.31076389,7.10982922 5.12488715,7.12520248 4.78248264,7.12834701 L4.35722222,7.12899588 L4.35722222,6.82232922 C4.35722222,6.36232922 4.37,6.0812181 4.43388889,5.78732922 L2.95166667,5.78732922 C2.99,6.13232922 3.01555556,6.4262181 3.01555556,6.82232922 L3.01555556,7.12899588 L2.35111111,7.12899588 C1.75055556,7.12899588 1.495,7.1162181 1.15,7.06510699 L1.15,8.3812181 C1.52055556,8.33010699 1.82722222,8.31732922 2.35111111,8.31732922 L3.01555556,8.31732922 L3.01555556,9.54399588 L1.98055556,9.54399588 C1.29055556,9.54399588 0.983888889,9.5312181 0.626111111,9.46732922 L0.626111111,10.8089959 C0.996666667,10.745107 1.32888889,10.7323292 1.98055556,10.7323292 L3.32222222,10.7323292 C2.31277778,11.6523292 1.31611111,12.3423292 0.204444444,12.8789959 C0.549444444,13.275107 0.702777778,13.5434403 0.92,14.1184403 C1.32888889,13.850107 1.495,13.7478848 1.80166667,13.5178848 L1.80166667,16.1628848 C1.80166667,16.8017737 1.77611111,17.2617737 1.725,17.5812181 L3.105,17.5812181 L3.105,16.9167737 L5.26444444,16.9167737 L5.26444444,17.3639959 L6.60611111,17.3639959 C6.57256944,17.0621209 6.55859375,16.7308969 6.55562391,16.2590425 L6.555,13.0067737 C6.555,12.240107 6.56777778,11.9845514 6.59333333,11.6395514 C6.35854167,11.6730931 6.11396701,11.6870688 5.72264757,11.6900386 L4.03777778,11.6906625 C4.38277778,11.3712181 4.6,11.1539959 4.98333333,10.7323292 L5.90333333,10.7323292 C6.46555556,10.7323292 6.81055556,10.745107 7.14277778,10.7834403 L7.14277778,9.49288477 C6.84888889,9.5312181 6.50388889,9.55677366 6.10777778,9.55677366 L5.99277778,9.55677366 C6.42722222,8.99455144 6.88722222,8.29177366 7.29611111,7.53788477 C7.39833333,7.3462181 7.41111111,7.32066255 7.51333333,7.15455144 L7.51333333,15.8562181 C7.51333333,16.725107 7.48777778,17.2617737 7.43666667,17.6195514 L8.94444444,17.6195514 Z M4.47222222,9.54399588 L4.37,9.54399588 L4.37,8.31732922 L4.77888889,8.31732922 C5.00888889,8.31732922 5.14944444,8.31732922 5.37944444,8.34288477 C5.16222222,8.68788477 4.85555556,9.09677366 4.47222222,9.54399588 Z M5.26444444,13.735107 L3.09222222,13.735107 L3.09222222,12.7384403 L5.26444444,12.7384403 L5.26444444,13.735107 Z M5.26444444,15.8178848 L3.09222222,15.8178848 L3.09222222,14.770107 L5.26444444,14.770107 L5.26444444,15.8178848 Z M24.0988889,15.1789959 C24.0477778,14.7956625 24.035,14.4506625 24.035,13.9395514 L24.035,10.1573292 C24.035,9.63344033 24.0477778,9.27566255 24.0861111,8.94344033 C23.8816667,8.9775144 23.596454,8.99139643 23.1227824,8.99406066 L21.0961111,8.99455144 C21.178254,8.83939271 21.2278005,8.73638817 21.3052867,8.57377884 L21.4155556,8.34288477 L21.4155556,8.34288477 L23.575,8.34288477 C24.035,8.34288477 24.4438889,8.35566255 24.84,8.39399588 L24.84,7.1162181 C24.4822222,7.16732922 24.1627778,7.19288477 23.575,7.19288477 L22.77,7.19288477 C22.9616667,6.91177366 23.2427778,6.47732922 23.4727778,6.09399588 L22.1055556,5.76177366 C21.8755556,6.29844033 21.62,6.75844033 21.3005556,7.19288477 L20.1761111,7.19288477 C19.8566667,6.55399588 19.665,6.23455144 19.3072222,5.74899588 L18.0677778,6.14510699 C18.3488889,6.49010699 18.5788889,6.83510699 18.7577778,7.19288477 L18.1316667,7.19288477 C17.5055556,7.19288477 17.1222222,7.16732922 16.8155556,7.1162181 L16.8155556,8.39399588 C17.1605556,8.35566255 17.5055556,8.34288477 18.0933333,8.34288477 L19.9716667,8.34288477 C19.8566667,8.62399588 19.8183333,8.71344033 19.665,8.99455144 L18.7066667,8.99455144 C18.1316667,8.99455144 17.7611111,8.98177366 17.4672222,8.9562181 C17.4927778,9.25010699 17.5183333,9.72288477 17.5183333,10.1445514 L17.5183333,13.965107 C17.5183333,14.3995514 17.5055556,14.885107 17.48,15.1789959 C17.9911111,15.1662181 18.2722222,15.1534403 18.6683333,15.1534403 L23.115,15.1534403 C23.4344444,15.1534403 23.6772222,15.1662181 24.0988889,15.1789959 Z M15.525,9.32677366 L16.5727778,8.34288477 C15.9466667,7.51232922 15.3588889,6.8862181 14.3877778,6.04288477 L13.3655556,6.96288477 C14.2344444,7.71677366 14.7711111,8.30455144 15.525,9.32677366 Z M22.7444444,10.7706625 L18.7961111,10.7706625 L18.7961111,10.0806625 L22.7444444,10.0806625 L22.7444444,10.7706625 Z M13.7744444,17.3767737 C13.9277778,17.2362181 13.9788889,17.1978848 14.1322222,17.0828848 C14.6944444,16.6867737 15.2183333,16.2395514 15.5888889,15.8434403 C16.0872222,16.4184403 16.3811111,16.6484403 16.9433333,16.8784403 C17.6333333,17.1595514 18.63,17.2745514 20.4572222,17.2745514 L20.7367384,17.273845 C21.6426002,17.269336 22.7706085,17.2429112 24.84,17.185107 C24.9294444,16.5334403 25.0188889,16.2267737 25.2616667,15.690107 C23.8816667,15.8689959 22.3227778,15.9584403 20.5083333,15.9584403 C18.7194444,15.9584403 17.8505556,15.8562181 17.1733333,15.5623292 C16.79,15.3962181 16.56,15.1789959 16.2788889,14.7189959 L16.2788889,12.0867737 C16.2788889,11.3839959 16.2916667,11.090107 16.3427778,10.6939959 C16.0488889,10.745107 15.755,10.7578848 15.3588889,10.7578848 L14.4261111,10.7578848 C13.9277778,10.7578848 13.7233333,10.745107 13.4038889,10.6939959 L13.4038889,12.0739959 C13.7361111,12.0228848 13.915,12.010107 14.2727778,12.010107 L14.9627778,12.010107 L14.9627778,14.6934403 C14.1577778,15.3834403 13.6211111,15.7539959 13.1355556,15.9328848 L13.7744444,17.3767737 Z M22.7444444,12.4062181 L18.7961111,12.4062181 L18.7961111,11.7289959 L22.7444444,11.7289959 L22.7444444,12.4062181 Z M22.7188889,14.0545514 L18.7833333,14.0545514 L18.7833333,13.3645514 L22.7188889,13.3645514 L22.7188889,14.0545514 Z M30.9988889,17.5812181 C30.9643889,17.2477181 30.9505889,16.9349181 30.9481739,16.3633681 L30.9477778,10.8217737 C31.3438889,10.170107 31.7144444,9.40344033 32.0466667,8.57288477 L30.6666667,8.21510699 C30.475,8.89232922 30.2194444,9.46732922 29.8105556,10.1445514 C29.4272222,10.7962181 28.98,11.3712181 28.3794444,11.9462181 C28.4433333,10.7195514 28.4688889,9.86344033 28.4688889,8.10010699 L36.3016667,8.10010699 C36.9405556,8.10010699 37.3622222,8.11288477 37.7966667,8.16399588 L37.7966667,6.74566255 C37.4644444,6.79677366 36.9788889,6.82232922 36.2377778,6.82232922 L33.0305556,6.82232922 L33.0305556,6.45177366 C33.0305556,6.10677366 33.0433333,5.91510699 33.0944444,5.71066255 L31.5611111,5.71066255 C31.5994444,5.92788477 31.625,6.14510699 31.625,6.43899588 L31.625,6.82232922 L28.5072222,6.82232922 C27.9322222,6.82232922 27.485,6.79677366 27.025,6.75844033 C27.0633333,7.21844033 27.0761111,7.62732922 27.0761111,8.48344033 C27.0761111,10.8217737 26.9866667,12.355107 26.795,13.620107 C26.6033333,14.9106625 26.3477778,15.6773292 25.8238889,16.495107 C26.2838889,16.8145514 26.5777778,17.070107 26.9866667,17.5428848 C27.4594444,16.7889959 27.6894444,16.2012181 27.9194444,15.2812181 C28.1111111,14.540107 28.2644444,13.5434403 28.3283333,12.700107 C28.5072222,12.9556625 28.5711111,13.045107 28.8394444,13.4923292 C29.1461111,13.1984403 29.2866667,13.0323292 29.6316667,12.5467737 C29.6089506,12.8647984 29.5963306,13.2232071 29.5938066,13.7835363 L29.5933333,16.1245514 C29.5933333,16.8145514 29.5677778,17.185107 29.5166667,17.5812181 L30.9988889,17.5812181 Z M34.6533333,17.4534403 C35.995,17.4534403 36.4166667,17.1595514 36.4166667,16.2523292 L36.4166667,11.3328848 L36.6977778,11.3328848 C37.2088889,11.3328848 37.5155556,11.3456625 37.8733333,11.3967737 L37.8733333,10.0295514 C37.6007407,10.0749835 37.3483402,10.0901276 36.8917756,10.092932 L36.4166667,10.0934403 L36.4166667,9.60788477 C36.4166667,9.0712181 36.4294444,8.81566255 36.4805556,8.48344033 L34.9983333,8.48344033 C35.0494444,8.82844033 35.0622222,9.08399588 35.0622222,9.62066255 L35.0622222,10.0934403 L32.5961111,10.0934403 C31.9827778,10.0934403 31.6888889,10.0806625 31.4333333,10.0295514 L31.4333333,11.3967737 C31.8166667,11.3456625 32.0977778,11.3328848 32.6727778,11.3328848 L35.0622222,11.3328848 L35.0622222,15.7028848 C35.0622222,16.0989959 34.9855556,16.150107 34.4488889,16.150107 C34.0655556,16.150107 33.5033333,16.0989959 32.8516667,15.9967737 C33.0944444,16.5334403 33.1966667,16.9039959 33.2605556,17.415107 C34.0144444,17.4406625 34.27,17.4534403 34.6533333,17.4534403 Z M33.2733333,14.9106625 L34.4233333,14.1567737 C33.9377778,13.2495514 33.4394444,12.5595514 32.7238889,11.7673292 L31.6505556,12.470107 C32.3661111,13.3262181 32.7494444,13.8884403 33.2733333,14.9106625 Z M49.1816667,12.3295514 C49.1433333,12.0356625 49.1305556,11.6395514 49.1305556,11.1667737 L49.1305556,7.37177366 C49.1305556,6.84788477 49.1433333,6.55399588 49.1816667,6.20899588 C48.7983333,6.24732922 48.4661111,6.26010699 47.955,6.26010699 L43.355,6.26010699 C42.7927778,6.26010699 42.4477778,6.24732922 42.0516667,6.20899588 C42.09,6.52844033 42.1027778,6.89899588 42.1027778,7.33344033 L42.1027778,11.1412181 C42.1027778,11.6395514 42.09,11.9973292 42.0516667,12.3295514 C42.435,12.2912181 42.7927778,12.2784403 43.3038889,12.2784403 L47.9294444,12.2784403 C48.4277778,12.2784403 48.8494444,12.2912181 49.1816667,12.3295514 Z M45.5272222,17.6706625 C45.4761111,17.3128848 45.4505556,16.9295514 45.4505556,16.2395514 L45.4505556,14.080107 L49.0538889,14.080107 C49.68,14.080107 50.0377778,14.1056625 50.4594444,14.1567737 L50.4594444,12.8278848 C50.1187037,12.8733169 49.808251,12.8884609 49.2588592,12.8912654 L40.9911111,12.8917737 L40.9911111,8.31732922 C40.9911111,7.70399588 41.0038889,7.43566255 41.0422222,7.05232922 L39.5727778,7.05232922 C39.6366667,7.42288477 39.6494444,7.71677366 39.6494444,8.33010699 L39.6494444,12.7895514 C39.6494444,13.4539959 39.6366667,13.7734403 39.5855556,14.1312181 C39.9561111,14.0928848 40.3522222,14.080107 40.9144444,14.080107 L44.0577778,14.080107 L44.0577778,16.2395514 C44.0577778,16.8912181 44.0322222,17.300107 43.9683333,17.6706625 L45.5272222,17.6706625 Z M47.7761111,7.98510699 L43.4316667,7.98510699 L43.4316667,7.37177366 L47.7761111,7.37177366 L47.7761111,7.98510699 Z M47.7761111,9.59510699 L43.4316667,9.59510699 L43.4316667,8.98177366 L47.7761111,8.98177366 L47.7761111,9.59510699 Z M47.7761111,11.2434403 L43.4316667,11.2434403 L43.4316667,10.5917737 L47.7761111,10.5917737 L47.7761111,11.2434403 Z M39.9944444,17.4789959 C41.2466667,16.7889959 42.0261111,16.1117737 42.9588889,14.885107 L41.8088889,14.2589959 C41.4127778,14.7828848 41.1572222,15.0639959 40.6716667,15.4473292 C40.135,15.8689959 39.7261111,16.1117737 39.0105556,16.4312181 C39.445,16.8145514 39.5983333,16.9678848 39.9944444,17.4789959 Z M49.7183333,17.4917737 C50.0633333,16.9806625 50.2166667,16.7762181 50.6383333,16.3289959 C49.2583333,15.7412181 48.645,15.3195514 47.6483333,14.2589959 L46.5877778,14.9489959 C47.1372222,15.5878848 47.4822222,15.9328848 48.0955556,16.4312181 C48.5938889,16.840107 48.9388889,17.0573292 49.7183333,17.4917737 Z" id="都道府県" fill="#454D58"></path>
                </g>
                <g id="Group" transform="translate(29.666963, 101.947214)" fill-rule="nonzero">
                    <rect id="input_copy_15-3" fill="#B8C5D0" x="63.6764946" y="3.65079365" width="103.134921" height="23.2445852" rx="1"></rect>
                    <path d="M10.4704762,7.1162181 L10.4704762,5.86764668 C10.0761905,5.92240858 9.68190476,5.94431334 9.09047619,5.94431334 L5.99095238,5.94431334 L5.99095238,5.39669429 C5.99095238,5.10098001 6.01285714,4.83812287 6.06761905,4.59717049 L4.68761905,4.59717049 C4.72047619,4.77240858 4.75333333,5.09002763 4.75333333,5.40764668 L4.75333333,5.94431334 L1.8947619,5.94431334 C1.33619048,5.94431334 0.941904762,5.92240858 0.514761905,5.86764668 L0.514761905,7.1162181 C0.930952381,7.07240858 1.34714286,7.05050382 1.86190476,7.05050382 L9.12333333,7.05050382 C9.80238095,7.05050382 10.1090476,7.0614562 10.4704762,7.1162181 Z M6.05666667,14.7171705 C6.00190476,14.2790752 5.98,13.9066943 5.98,13.3700276 L5.98,9.30669429 L8.36761905,9.30669429 L8.36761905,12.1543133 C8.36761905,12.4390752 8.26904762,12.4938372 7.82,12.4938372 C7.59,12.4938372 7.23952381,12.46098 6.74666667,12.3843133 C6.94380952,12.8990752 6.97666667,13.0524086 7.04238095,13.5562181 C7.49142857,13.5890752 7.69952381,13.6000276 7.95142857,13.6000276 C9.23285714,13.6000276 9.55047619,13.3481229 9.55047619,12.3624086 L9.55047619,9.1314562 C9.55047619,8.73717049 9.56142857,8.48526572 9.59428571,8.18955144 C9.31265306,8.2177147 9.08734694,8.22978467 8.71835069,8.23265848 L5.98,8.23336096 L5.98,8.10193239 C5.98,7.69669429 5.99095238,7.43383715 6.02380952,7.30240858 L4.70952381,7.30240858 C4.74238095,7.54336096 4.75333333,7.81717049 4.75333333,8.10193239 L4.75333333,8.23336096 L2.45333333,8.23336096 C1.98238095,8.23336096 1.67571429,8.22240858 1.3252381,8.18955144 C1.35809524,8.50717049 1.36904762,8.79193239 1.36904762,9.1314562 L1.36904762,12.46098 C1.36904762,12.9647895 1.34714286,13.3262181 1.30333333,13.7424086 L2.65047619,13.7424086 C2.60255952,13.4261586 2.58818452,13.1350648 2.58533947,12.6636846 L2.5847619,9.30669429 L4.75333333,9.30669429 L4.75333333,13.38098 C4.75333333,13.8847895 4.73142857,14.2681229 4.67666667,14.7171705 L6.05666667,14.7171705 Z M13.1428571,14.6624086 L13.1428571,14.1476467 L20.1085714,14.1476467 C20.6671429,14.1476467 20.9847619,14.1695514 21.302381,14.213361 L21.302381,12.9428848 C21.0492593,12.991562 20.7874838,13.0056243 20.2939807,13.0081483 L13.1428571,13.0085991 L13.1428571,6.25098001 L19.867619,6.25098001 C20.47,6.25098001 20.7657143,6.26193239 21.1490476,6.31669429 L21.1490476,5.03526572 C20.8472487,5.08394297 20.5541035,5.10665902 20.0542302,5.11110608 L13.0552381,5.11193239 C12.5404762,5.11193239 12.2338095,5.10098001 11.872381,5.05717049 C11.9052381,5.41859906 11.9161905,5.76907525 11.9161905,6.22907525 L11.9161905,13.3919324 C11.9161905,13.9285991 11.8942857,14.2900276 11.8504762,14.6624086 L13.1428571,14.6624086 Z M14.2380952,12.7676467 C15.64,11.9462181 16.3519048,11.3985991 17.3485714,10.39098 C18.1919048,11.1028848 18.6519048,11.54098 19.6485714,12.5595514 L20.5795238,11.5847895 C19.637619,10.7085991 19.002381,10.16098 18.1590476,9.49288477 C18.7066667,8.82478953 19.0790476,8.27717049 19.4952381,7.5214562 C19.6595238,7.22574191 19.6814286,7.19288477 19.8347619,6.96288477 L18.63,6.39336096 C18.4547619,6.99574191 17.9071429,7.93764668 17.2280952,8.77002763 C16.2204762,8.0362181 16.2095238,8.02526572 14.7419048,7.0614562 L13.9095238,7.91574191 C14.9828571,8.57288477 15.6728571,9.04383715 16.4395238,9.6462181 C15.5414286,10.5224086 14.6433333,11.1576467 13.3619048,11.8257419 C13.712381,12.143361 13.9752381,12.4281229 14.2380952,12.7676467 Z M29.6919048,14.5419324 C30.3271429,14.5419324 30.6885714,14.4762181 30.8857143,14.3119324 C31.1047619,14.1476467 31.1814286,13.8957419 31.1814286,13.3481229 L31.1814286,7.01764668 C31.8495238,7.01764668 32.1452381,7.02859906 32.4738095,7.07240858 L32.4738095,5.81288477 C32.112381,5.85669429 31.6742857,5.87859906 31.0828571,5.87859906 L27.8847619,5.87859906 C27.8957143,5.46240858 27.9066667,5.25431334 27.9285714,5.00240858 C27.6219048,5.03115858 27.3655506,5.04313775 26.9540662,5.04568332 L23.9419048,5.0462181 C23.4161905,5.0462181 23.1204762,5.03526572 22.7809524,5.00240858 C22.8138095,5.35288477 22.8247619,5.63764668 22.8247619,6.1414562 L22.8247619,12.0338372 C22.8247619,12.6471705 22.8028571,13.1400276 22.7590476,13.523361 L23.92,13.523361 L23.92,12.5705038 L26.7785714,12.5705038 L26.7785714,13.15098 L27.9395238,13.15098 C27.9066667,12.8552657 27.8847619,12.4828848 27.8847619,12.0995514 L27.8847619,7.01764668 L29.9766667,7.01764668 L29.9766667,13.1838372 C29.9766667,13.38098 29.9,13.4247895 29.5385714,13.4247895 C29.1552381,13.4247895 28.7390476,13.3919324 28.2242857,13.3371705 C28.3666667,13.7862181 28.4214286,14.0490752 28.4652381,14.5090752 C28.837619,14.53098 29.3852381,14.5419324 29.6919048,14.5419324 Z M24.8290476,8.17859906 L23.9309524,8.17859906 L23.9309524,6.11955144 L24.8290476,6.11955144 L24.8290476,8.17859906 Z M26.7895238,8.17859906 L25.8804762,8.17859906 L25.8804762,6.11955144 L26.7895238,6.11955144 L26.7895238,8.17859906 Z M24.8290476,11.4862181 L23.9309524,11.4862181 L23.9309524,9.25193239 L24.8290476,9.25193239 L24.8290476,11.4862181 Z M26.7895238,11.4862181 L25.8804762,11.4862181 L25.8804762,9.25193239 L26.7895238,9.25193239 L26.7895238,11.4862181 Z M36.427619,14.7062181 C36.3838095,14.3885991 36.3619048,14.0162181 36.3619048,13.5124086 L36.3619048,10.8181229 L36.3618848,10.627474 L36.3618848,10.627474 L36.3613659,10.3175424 C36.3593902,9.82452957 36.3501701,9.70098001 36.3071429,9.21907525 C36.712381,10.073361 36.8985714,10.3800276 37.3695238,11.0043133 C37.5885714,10.4566943 37.6980952,10.2595514 37.9609524,9.89812287 C37.3038095,9.23002763 36.7671429,8.48526572 36.3838095,7.69669429 L36.7452381,7.69669429 C37.0628571,7.69669429 37.3585714,7.71859906 37.6761905,7.7514562 L37.6761905,6.55764668 C37.3585714,6.6014562 37.0628571,6.62336096 36.7233333,6.62336096 L36.3619048,6.62336096 L36.3619048,5.69240858 C36.3619048,5.23240858 36.3838095,4.92574191 36.427619,4.61907525 L35.1461905,4.61907525 C35.2009524,4.92574191 35.2119048,5.2214562 35.2119048,5.6814562 L35.2119048,6.62336096 L34.5657143,6.62336096 C34.1495238,6.62336096 33.8428571,6.6014562 33.5033333,6.55764668 L33.5033333,7.7514562 C33.8428571,7.71859906 34.1385714,7.69669429 34.5547619,7.69669429 L35.1242857,7.69669429 C34.817619,8.80288477 33.9852381,10.3581229 33.1966667,11.3219324 C33.4595238,11.6724086 33.6019048,11.9462181 33.81,12.4719324 C34.4561905,11.6066943 34.8066667,10.9495514 35.2885714,9.71193239 C35.2398942,10.2376467 35.2258319,10.5383639 35.2233079,11.1140775 L35.2228571,13.523361 C35.2228571,14.0162181 35.2009524,14.3885991 35.1571429,14.7062181 L36.427619,14.7062181 Z M40.48,14.5090752 C41.1152381,14.5090752 41.4547619,14.4762181 41.6957143,14.3776467 C42.0461905,14.2352657 42.1995238,13.9285991 42.1995238,13.3152657 L42.1995238,7.78431334 L42.3090476,7.78431334 C42.7142857,7.78431334 43.0209524,7.79526572 43.3385714,7.82812287 L43.3385714,6.63431334 C43.0538095,6.67812287 42.7471429,6.70002763 42.2761905,6.70002763 L42.1995238,6.70002763 L42.1995238,5.95526572 C42.1995238,5.40764668 42.2214286,5.03526572 42.2652381,4.66288477 L40.9290476,4.66288477 C40.9838095,5.01336096 41.0057143,5.41859906 41.0057143,5.94431334 L41.0057143,6.70002763 L39.1109524,6.70002763 C38.5742857,6.70002763 38.2128571,6.67812287 37.8952381,6.63431334 L37.8952381,7.85002763 C38.2238095,7.8062181 38.64,7.78431334 39.1219048,7.78431334 L41.0057143,7.78431334 L41.0057143,13.0743133 C41.0057143,13.3262181 40.9180952,13.38098 40.5566667,13.38098 C40.1842857,13.38098 39.7571429,13.3481229 39.3409524,13.293361 C39.2752381,13.2824086 39.1547619,13.2714562 39.012381,13.2495514 C39.1985714,13.6547895 39.2752381,13.9505038 39.3409524,14.4652657 C39.9222711,14.4989654 40.1147478,14.5067422 40.3022394,14.5085369 L40.48,14.5090752 L40.48,14.5090752 Z M39.3080952,11.8038372 L40.3485714,11.1576467 C39.932381,10.0514562 39.6366667,9.49288477 38.9685714,8.52907525 L37.9390476,9.03288477 C38.6071429,10.0076467 38.8809524,10.5771705 39.3080952,11.8038372 Z M46.5695238,14.6624086 L47.5880952,13.7095514 C46.7447619,12.6690752 46.1314286,12.0666943 45.1238095,11.3000276 L44.1928571,12.1652657 C45.1457143,12.92098 45.77,13.5781229 46.5695238,14.6624086 Z M3.05571429,28.4185991 L3.05571429,27.9147895 L7.91857143,27.9147895 L7.91857143,28.4185991 L9.12333333,28.4185991 C9.07639456,28.1088031 9.06164237,27.8633804 9.05838539,27.475417 L9.05761905,24.4100276 C9.41904762,24.6071705 9.59428571,24.6947895 10.0542857,24.9028848 C10.262381,24.4100276 10.3938095,24.1690752 10.6895238,23.7747895 C9.30952381,23.4243133 8.18142857,22.8438372 7.21761905,22.0114562 L9.10142857,22.0114562 C9.56142857,22.0114562 9.9447619,22.033361 10.2952381,22.0771705 L10.2952381,20.9490752 C9.99952381,20.9928848 9.66,21.0147895 9.10142857,21.0147895 L8.14857143,21.0147895 C8.42238095,20.6095514 8.61952381,20.2481229 8.80571429,19.8757419 L7.65571429,19.59098 C7.45857143,20.1385991 7.28333333,20.51098 6.96571429,21.0147895 L5.98,21.0147895 L5.98,19.6895514 C7.77619048,19.4924086 8.44428571,19.4047895 9.04666667,19.3171705 C9.2,19.2952657 9.29857143,19.273361 9.33142857,19.273361 C9.55047619,19.2405038 9.55047619,19.2405038 9.66,19.2295514 L8.83857143,18.2219324 C8.21428571,18.4081229 7.23952381,18.5724086 5.98,18.6928848 C4.35466667,18.8462181 3.60708148,18.8946033 2.40154074,18.9003732 L1.90828125,18.9006377 C1.68598214,18.899611 1.46214286,18.8955038 1.08428571,18.8790752 C1.3252381,19.2405038 1.40190476,19.4157419 1.5552381,19.9195514 C2.23428571,19.9195514 2.34380952,19.9085991 3.02285714,19.8866943 L2.2452381,20.1495514 C2.57380952,20.6862181 2.62857143,20.7847895 2.73809524,21.0147895 L1.82904762,21.0147895 C1.29238095,21.0147895 0.930952381,20.9928848 0.624285714,20.9490752 L0.624285714,22.0771705 C0.952857143,22.033361 1.36904762,22.0114562 1.82904762,22.0114562 L3.6252381,22.0114562 C2.74904762,22.8547895 1.74142857,23.413361 0.372380952,23.8185991 C0.679047619,24.1690752 0.865238095,24.4757419 1.00761905,24.9028848 C1.47857143,24.6619324 1.62095238,24.5852657 1.91666667,24.42098 L1.91666667,27.2685991 C1.91666667,27.6738372 1.8947619,28.0900276 1.86190476,28.4185991 L3.05571429,28.4185991 Z M4.85190476,21.0147895 L3.87714286,21.0147895 C3.71285714,20.6424086 3.47190476,20.1824086 3.28571429,19.8757419 C4.40285714,19.8319324 4.40285714,19.8319324 4.85190476,19.7990752 L4.85190476,21.0147895 Z M7.75428571,23.643361 L3.1652381,23.643361 C3.89904762,23.1285991 4.35904762,22.7014562 4.87380952,22.0662181 C4.86285714,22.2524086 4.85190476,22.3838372 4.85190476,22.4495514 L4.85190476,22.7343133 C4.85190476,22.9971705 4.84095238,23.1176467 4.79714286,23.4243133 L6.02380952,23.4243133 C5.99095238,23.2819324 5.98,23.0519324 5.98,22.723361 L5.98,22.4276467 C5.98,22.3619324 5.98,22.35098 5.95809524,22.2195514 C5.95809524,22.2085991 5.95809524,22.1538372 5.94714286,22.0552657 C6.48380952,22.6905038 6.97666667,23.1176467 7.75428571,23.643361 Z M4.87380952,25.2862181 L3.05571429,25.2862181 L3.05571429,24.5962181 L4.87380952,24.5962181 L4.87380952,25.2862181 Z M7.91857143,25.2971705 L5.98,25.2971705 L5.98,24.6071705 L7.91857143,24.6071705 L7.91857143,25.2971705 Z M4.87380952,26.9290752 L3.05571429,26.9290752 L3.05571429,26.2500276 L4.87380952,26.2500276 L4.87380952,26.9290752 Z M7.90761905,26.9400276 L5.96904762,26.9400276 L5.96904762,26.2500276 L7.90761905,26.2500276 L7.90761905,26.9400276 Z M18.0714286,28.1666943 C21.1928571,28.1666943 21.4228571,28.013361 21.5542857,25.8228848 C21.1819048,25.7571705 20.7109524,25.6147895 20.3604762,25.4614562 C20.3604762,26.2062181 20.2947619,26.5785991 20.1633333,26.7647895 C20.0076942,26.9826843 19.6849479,27.0433016 18.5432209,27.0490788 L18.3452381,27.0495514 C17.5457143,27.0495514 17.1404762,27.0276467 16.8557143,26.9728848 C16.6147619,26.9290752 16.5380952,26.8524086 16.5380952,26.633361 L16.5380952,22.8547895 L17.6004762,22.5152657 L17.6004762,24.8371705 C17.6004762,25.3519324 17.5895238,25.5928848 17.5457143,25.9652657 L18.8161905,25.9652657 C18.772381,25.6257419 18.7504762,25.3190752 18.7504762,24.8700276 L18.7504762,22.1428848 L20.01,21.7485991 C19.9771429,22.81098 19.9333333,23.4900276 19.8785714,23.8514562 C19.8347619,24.0814562 19.7690476,24.1252657 19.4952381,24.1252657 C19.3309524,24.1252657 19.1338095,24.0924086 18.8819048,24.0376467 C19.0461905,24.3771705 19.1228571,24.6947895 19.177619,25.1657419 C19.3601587,25.1803451 19.4648148,25.1852128 19.5564903,25.1868354 L19.692381,25.1876467 L19.692381,25.1876467 C20.4919048,25.1876467 20.787619,25.0014562 20.93,24.3771705 C21.0395238,23.9062181 21.1161905,22.9095514 21.1709524,21.3652657 C21.1928571,20.7738372 21.2038095,20.6971705 21.2257143,20.2152657 C20.93,20.3466943 20.7547619,20.4124086 20.327619,20.5438372 L18.7504762,21.0366943 L18.7504762,19.503361 C18.7504762,19.0981229 18.772381,18.7476467 18.8161905,18.3862181 L17.5457143,18.3862181 C17.5895238,18.7476467 17.6004762,18.9776467 17.6004762,19.4814562 L17.6004762,21.3871705 L16.5380952,21.7266943 L16.5380952,20.5328848 C16.5380952,20.0838372 16.56,19.7662181 16.6038095,19.4157419 L15.3114286,19.4157419 C15.3661905,19.7771705 15.3771429,20.05098 15.3771429,20.5766943 L15.3771429,22.0771705 L15.2785714,22.1100276 C14.9061905,22.2305038 14.5228571,22.3071705 14.2161905,22.35098 L14.49,23.5447895 C14.7090476,23.4462181 14.8295238,23.4024086 15.1580952,23.2928848 C15.2019048,23.2819324 15.2785714,23.2600276 15.3771429,23.2271705 L15.3771429,26.9947895 C15.3771429,27.9585991 15.8590476,28.1666943 18.0714286,28.1666943 Z M11.5328571,27.2247895 C11.6971429,27.1481229 11.7957143,27.1043133 12.102381,26.9838372 C13.2195238,26.5676467 13.8109524,26.3047895 14.807619,25.7681229 L14.7747619,24.6071705 C14.2819048,24.8590752 14.1614286,24.9138372 13.7342857,25.11098 L13.7342857,22.1319324 L13.942381,22.1319324 C14.2819048,22.1319324 14.4790476,22.1428848 14.7090476,22.1757419 L14.7090476,21.0257419 C14.5557143,21.0544919 14.4191518,21.0664711 14.1159291,21.0690167 L13.7342857,21.0695514 L13.7342857,19.6676467 C13.7342857,19.0543133 13.7452381,18.7476467 13.8,18.3971705 L12.5404762,18.3971705 C12.5842857,18.7366943 12.6061905,19.0871705 12.6061905,19.6566943 L12.6061905,21.0695514 L12.3542857,21.0695514 C11.9271429,21.0695514 11.7409524,21.0585991 11.5,21.0147895 L11.5,22.1866943 C11.7628571,22.1428848 11.9380952,22.1319324 12.3542857,22.1319324 L12.6061905,22.1319324 L12.6061905,25.57098 C11.9490476,25.8228848 11.6314286,25.9214562 11.3028571,25.9652657 L11.5328571,27.2247895 Z M24.6647619,28.3528848 L25.6833333,27.4000276 C24.84,26.3595514 24.2266667,25.7571705 23.2190476,24.9905038 L22.2880952,25.8557419 C23.2409524,26.6114562 23.8652381,27.2685991 24.6647619,28.3528848 Z M35.9832653,26.7538372 C35.9394558,26.49098 35.9285034,26.3266943 35.9285034,25.8338372 L38.0094558,25.8338372 C38.4146939,25.8338372 38.7213605,25.8447895 38.9842177,25.8776467 L38.9842177,24.8481229 C38.7495238,24.8856739 38.5389699,24.899085 38.193922,24.9021504 L35.9285034,24.9028848 L35.9285034,24.2566943 L37.6151701,24.2566943 C38.0094558,24.2566943 38.2832653,24.2676467 38.5461224,24.3005038 L38.5461224,23.3476467 C38.2394558,23.3805038 38.0094558,23.3914562 37.6261224,23.3914562 L35.9285034,23.3914562 L35.9285034,22.7671705 L37.6042177,22.7671705 C37.8889796,22.7671705 38.0861224,22.7781229 38.3708844,22.7890752 C38.3489796,22.6247895 38.3380272,22.3838372 38.3380272,22.1319324 L38.3380272,21.2995514 C38.6885034,21.2995514 38.8746939,21.3105038 39.1156463,21.3543133 L39.1156463,20.3357419 C38.8746939,20.3905038 38.6885034,20.4014562 38.3380272,20.4014562 L38.3380272,19.6019324 C38.3380272,19.3281229 38.3489796,19.1200276 38.3708844,18.9119324 C38.129932,18.9338372 37.8780272,18.9447895 37.5385034,18.9447895 L35.9285034,18.9447895 C35.9285034,18.5724086 35.9504082,18.4300276 35.9832653,18.2219324 L34.7785034,18.2219324 C34.8223129,18.4738372 34.8332653,18.5943133 34.8332653,18.9447895 L33.617551,18.9447895 C33.2342177,18.9447895 33.0480272,18.9338372 32.7742177,18.90098 L32.7742177,19.8757419 C33.0042177,19.8428848 33.2561224,19.8319324 33.5518367,19.8319324 L34.8332653,19.8319324 L34.8332653,20.4014562 L33.1904082,20.4014562 C32.6318367,20.4014562 32.4785034,20.3905038 32.2046939,20.3466943 L32.2046939,21.343361 C32.4785034,21.3105038 32.6756463,21.2995514 33.1465986,21.2995514 L34.8332653,21.2995514 L34.8332653,21.89098 L33.5627891,21.89098 C33.1904082,21.89098 33.0261224,21.8800276 32.7961224,21.8471705 L32.7961224,22.8000276 C33.0370748,22.7781229 33.2013605,22.7671705 33.4970748,22.7671705 L34.8332653,22.7671705 L34.8332653,23.3914562 L33.529932,23.3914562 C33.1685034,23.3914562 32.9385034,23.3805038 32.6537415,23.3476467 L32.6537415,24.3114562 C32.927551,24.2676467 33.2013605,24.2566943 33.529932,24.2566943 L34.8332653,24.2566943 L34.8332653,24.9028848 L33.2670748,24.9028848 C32.8618367,24.9028848 32.5661224,24.8919324 32.3142177,24.8481229 L32.3142177,25.8776467 C32.5880272,25.8447895 32.7961224,25.8338372 33.2561224,25.8338372 L34.8332653,25.8338372 C34.8332653,26.26098 34.8223129,26.4690752 34.7785034,26.7538372 L35.9832653,26.7538372 Z M29.619932,28.3747895 C30.2442177,27.8162181 30.539932,27.4657419 31.0218367,26.7428848 C32.1170748,27.783361 33.2451701,28.1228848 35.6546939,28.1228848 C36.8485034,28.1228848 37.899932,28.1119324 38.9294558,28.0900276 C39.0061224,27.5095514 39.0389796,27.3671705 39.2251701,26.8743133 C38.1846939,26.9619324 36.8265986,27.0166943 35.4904082,27.0166943 C35.3261224,27.0166943 34.9427891,27.0057419 34.6580272,26.9838372 C33.6942177,26.9181229 33.2123129,26.8305038 32.7194558,26.6224086 C32.2923129,26.4471705 31.9308844,26.1952657 31.547551,25.8228848 C32.0404082,24.7714562 32.2704082,23.8405038 32.3908844,22.3181229 C32.4127891,22.12098 32.4237415,22.033361 32.4456463,21.8362181 C32.2999796,21.8592181 32.2133463,21.8661181 32.0054263,21.8681881 L31.1532653,21.8690752 C31.4051701,21.4528848 31.8980272,20.5000276 32.1170748,19.9852657 C32.2923129,19.5690752 32.3032653,19.5471705 32.3908844,19.4266943 L31.8651701,18.7147895 C31.7022534,18.7435395 31.5393367,18.7555187 31.222338,18.7580643 L29.9156463,18.7585991 C29.5980272,18.7585991 29.389932,18.7476467 29.1380272,18.7038372 L29.1380272,19.8647895 C29.4008844,19.82098 29.5870748,19.8100276 29.8827891,19.8100276 L30.9780272,19.8100276 C30.7808844,20.3466943 30.6932653,20.5547895 30.2880272,21.3214562 C30.0251701,21.8252657 30.0251701,21.8252657 29.3461224,22.9314562 C29.6089796,22.9095514 29.9265986,22.8985991 30.2332653,22.8985991 L31.2737415,22.8985991 C31.1532653,23.7638372 31.0437415,24.1800276 30.7918367,24.8043133 C30.5508844,24.3771705 30.4413605,24.103361 30.2113605,23.4243133 L29.2365986,23.9390752 C29.3461224,24.1471705 29.4227891,24.3224086 29.477551,24.42098 C29.6089796,24.6947895 29.707551,24.8700276 29.7294558,24.9138372 C29.9156463,25.2862181 30.0580272,25.5381229 30.2551701,25.8228848 C29.849932,26.4362181 29.5213605,26.7866943 28.8423129,27.3671705 C29.2037415,27.7395514 29.389932,27.9805038 29.619932,28.3747895 Z M37.2646939,20.4014562 L35.9285034,20.4014562 L35.9285034,19.8319324 L37.2646939,19.8319324 L37.2646939,20.4014562 Z M37.2646939,21.89098 L35.9285034,21.89098 L35.9285034,21.2995514 L37.2646939,21.2995514 L37.2646939,21.89098 Z M42.9489796,28.4185991 C42.9051701,28.0024086 42.8832653,27.6190752 42.8832653,27.1590752 L42.8832653,24.6728848 C43.2556463,24.5195514 43.4089796,24.4538372 43.9237415,24.2347895 L43.9127891,23.1395514 C43.4308844,23.3585991 43.2665986,23.413361 42.8832653,23.5447895 L42.8832653,21.4966943 L43.1461224,21.4966943 C43.3980272,21.4966943 43.5404082,21.4966943 43.7594558,21.5185991 C43.6061224,21.6938372 43.4965986,21.803361 43.2337415,22.0443133 C43.5951701,22.2743133 43.8032653,22.4605038 44.1427891,22.8766943 C44.6794558,22.3181229 45.0737415,21.7266943 45.4461224,20.9490752 L45.9608844,20.9490752 C45.6432653,22.0771705 45.2270748,22.8876467 44.5589796,23.6871705 C44.1537415,24.1690752 43.8689796,24.42098 43.2665986,24.793361 C43.6718367,25.11098 43.8689796,25.34098 44.0770748,25.7462181 C45.5665986,24.563361 46.4646939,23.0957419 47.0123129,20.9490752 L47.4613605,20.9490752 C47.2204082,22.2743133 46.9137415,23.2490752 46.409932,24.2676467 C45.7418367,25.5819324 44.9094558,26.49098 43.5623129,27.3781229 C44.0442177,27.6957419 44.2304082,27.8819324 44.4823129,28.2762181 C45.9061224,27.1481229 46.6727891,26.2390752 47.329932,24.9138372 C47.8556463,23.8514562 48.1951701,22.7452657 48.5018367,20.9490752 L48.6332653,20.9490752 C48.6004082,23.1614562 48.5018367,24.9466943 48.3156463,26.1295514 C48.1951701,26.9071705 48.0308844,27.1371705 47.5927891,27.1371705 C47.2313605,27.1371705 46.7932653,27.0824086 46.2346939,26.9619324 C46.4318367,27.3781229 46.5194558,27.7395514 46.5194558,28.1995514 C47.0561224,28.243361 47.329932,28.2652657 47.5708844,28.2652657 C48.5346939,28.2652657 49.0056463,28.013361 49.257551,27.3562181 C49.5532653,26.6005038 49.6956463,24.9466943 49.7723129,21.2228848 C49.7877751,20.488431 49.7923228,20.2724152 49.8090691,20.0894638 L49.8185657,19.9984964 C49.8239293,19.9521433 49.8302961,19.9028007 49.8380272,19.8428848 C49.6655272,19.8716348 49.4511001,19.8836139 49.0920246,19.8861595 L45.8951701,19.8866943 C45.9608844,19.7005038 46.0046939,19.5800276 46.037551,19.4814562 C46.3004082,18.7147895 46.3004082,18.7147895 46.3880272,18.4847895 L45.117551,18.2657419 C45.0737415,18.7147895 44.9094558,19.273361 44.6356463,19.9524086 C44.427551,20.4781229 44.1756463,20.9490752 43.8580272,21.3871705 L43.8580272,20.3357419 C43.6984354,20.3732929 43.5468902,20.386704 43.2861405,20.3897694 L42.8832653,20.3905038 L42.8832653,19.1528848 C42.8832653,18.7914562 42.9051701,18.5395514 42.9489796,18.2547895 L41.6565986,18.2547895 C41.7113605,18.5614562 41.7332653,18.813361 41.7332653,19.1528848 L41.7332653,20.3905038 L41.3170748,20.3905038 C41.349932,19.9852657 41.3608844,19.9305038 41.4046939,19.273361 L40.3094558,19.1528848 C40.3313605,19.3500276 40.3313605,19.4485991 40.3313605,19.6128848 C40.3313605,20.0619324 40.2765986,20.6095514 40.1889796,21.1571705 C40.057551,21.8800276 39.9808844,22.1866943 39.7727891,22.6795514 C40.1889796,22.8547895 40.4080272,22.9752657 40.7694558,23.27098 C40.9885034,22.5262181 41.0870748,22.1100276 41.1856463,21.4966943 L41.7332653,21.4966943 L41.7332653,23.9281229 C40.6818367,24.2566943 40.4189796,24.3224086 39.9151701,24.3552657 L40.1670748,25.6585991 C40.3861224,25.5600276 40.4518367,25.5271705 40.747551,25.4285991 C40.8664626,25.391048 41.0247133,25.3391919 41.2223032,25.270987 L41.5481924,25.1561626 C41.6074247,25.1348964 41.6691156,25.1125446 41.7332653,25.0890752 L41.7332653,27.1590752 C41.7332653,27.64098 41.7113605,28.0352657 41.6565986,28.4185991 L42.9489796,28.4185991 Z" id="市区町村、番地、建物" fill="#454D58"></path>
                </g>
                <rect id="CTA_copy_9-3" fill="#89969F" fill-rule="nonzero" x="154.702381" y="145.271164" width="42.1666667" height="15.515873" rx="1"></rect>
            </g>
        </g>
    </g>
</svg>