<?xml version="1.0" encoding="utf-8"?>
<!-- Generator: Adobe Illustrator 24.1.2, SVG Export Plug-In . SVG Version: 6.00 Build 0)  -->
<svg version="1.1" id="レイヤー_1" xmlns="http://www.w3.org/2000/svg" xmlns:xlink="http://www.w3.org/1999/xlink" x="0px"
	 y="0px" viewBox="0 0 305 302" style="enable-background:new 0 0 305 302;" xml:space="preserve">
<style type="text/css">
	.st0{clip-path:url(#SVGID_2_);}
	.st1{opacity:0.5;fill:#FFFFFF;}
	.st2{fill:#FFFFFF;}
</style>
<g>
	<defs>
		<polygon id="SVGID_1_" points="-18.6,-17.3 -18.6,320.5 0.4,320.5 305.2,320.5 323.1,320.5 323.1,318.5 323.1,1.2 323.1,-17.3 		
			"/>
	</defs>
	<clipPath id="SVGID_2_">
		<use xlink:href="#SVGID_1_"  style="overflow:visible;"/>
	</clipPath>
	<g class="st0">
		<path class="st1" d="M208.2,53.1c5.8-15.1,5.2-30.5-1.8-40.5C201,4.9,190.2,0,180.1,0c-9.7-0.3-19.1,3.6-25.6,10.9
			c-7.9,8.4-10,15.5-13.4,25.5L99.1,155.2h24.2c6.9-13.2,15.4-18.9,26.9-20.5s38.5-1.9,49.7-17.2c10.9-15,15.2-37.9,4.6-54.1
			L208.2,53.1z M187,71.7c4.9,5.2,5.5,13.4,3.4,21.4c-0.6,2.3-1.4,4.6-2.4,6.8c-2,4.6-5.5,8.4-9.8,10.9c-5,2.8-10.7,3.9-16.4,4.4
			c-8.4,0.9-17,0.1-25.1,2.4c-0.8,0.2-3.7,1.2-4.6,1.6c0.3-1,26.9-76.6,26.9-76.6c2.2-6.5,4.1-13.4,9.1-18.5
			c2.4-2.7,5.7-4.4,9.3-4.9c4.8-0.6,11,1.1,13.6,4.9c3.4,4.8,3.1,13.2-0.5,22.4l-1.5,4.4c-6.6-2.7-13.5-3.2-19.5-3.3v19
			C177.5,66.5,182.9,67.3,187,71.7z"/>
		<path class="st2" d="M79.7,287.1c0.4,0,0.7-0.3,0.7-0.7c0,0,0,0,0,0v-1c0-1.1,0-2.2-0.2-3.3c0-0.1,0-0.2,0-0.3s0.2-0.3,0.4-0.3
			c0.6,0,1.2,0.1,1.8,0.3c0.5,0.1,0.6,0.2,0.6,0.3s-0.2,0.3-0.3,0.4s-0.2,0.6-0.2,0.9c0,0.7,0,1.4,0,2v1.1c0,0.4,0.3,0.7,0.7,0.7
			c0,0,0.1,0,0.1,0h1.6c0.8,0,2.7-0.1,3.1-0.1s0.6,0.2,0.6,1.2c0,0.7-0.1,0.9-0.7,0.9c-0.5,0-0.9,0-1.4,0s-1.1,0-1.6,0h-1.6
			c-0.4,0-0.7,0.3-0.7,0.7c0,0,0,0,0,0l0.1,6.1c0,1.1,0.1,3.1-0.5,3.9c-0.8,1-2.6,1.1-3.8,1.1c-0.3,0-0.6,0-0.8-0.4
			c-0.2-0.4-0.3-0.9-0.3-1.4c0-0.2,0.1-0.3,0.3-0.4c0,0,0.1,0,0.1,0h0.9c2.1,0,2.1-0.4,2.1-2.1v-0.5l-0.2-5.4c0-0.2-0.1-0.3-0.3-0.3
			c-0.2,0-0.3,0.2-0.5,0.4c-2.2,2.8-4.7,5.2-7.6,7.2c-0.2,0.2-0.5,0.3-0.8,0.4c-0.4,0-1.4-0.9-1.4-1.3c0-0.2,0.3-0.4,0.5-0.5
			c2.8-1.6,5.3-3.7,7.3-6.2c0.2-0.2,0.8-0.8,0.8-1s-0.2-0.3-0.4-0.3l-4.3,0.1c-0.9,0-2.6,0.1-3.1,0.1s-0.6-0.3-0.6-1.1s0-1,0.6-1
			h1.6h1.4L79.7,287.1z"/>
		<path class="st2" d="M121.1,290c1,0,2.6-0.1,3-0.1c0.6,0,0.7,0.2,0.7,1.2c0,0.6,0,1.1-0.6,1.1c-1,0-2-0.1-3-0.1h-11.4
			c-1,0-2,0.1-3,0.1c-0.6,0-0.6-0.5-0.6-1.1c0-1,0.1-1.2,0.7-1.2c0.4,0,1.9,0.1,3,0.1H121.1z"/>
		<path class="st2" d="M148.9,297.5c0,1.1,0.1,2.2,0.1,3.3s-0.1,1.2-1.2,1.2c-0.8,0-1.1,0-1.1-0.9c0-1.2,0-2.4,0-3.5V284
			c0-0.7,0-1.5-0.1-2c0-0.1-0.1-0.4-0.1-0.5s0.1-0.3,0.3-0.3s1.6,0.2,1.9,0.3s0.6,0.1,0.6,0.4c0,0.1-0.1,0.2-0.1,0.3
			c-0.2,0.2-0.2,0.5-0.2,0.8c0,0.7,0,1.4,0,2L148.9,297.5z M154.3,290.9c0.1,0.1,0.2,0.2,0.3,0.3c0.5,0.4,1.4,1,1.4,1.3
			c-0.2,0.6-0.6,1.2-1.2,1.4c-0.2,0-0.4-0.1-0.5-0.3c-1.3-1.1-2.7-2.1-4.1-2.9c-0.2-0.1-0.5-0.2-0.5-0.5c0-0.4,0.7-1.5,1.1-1.5
			c1.1,0.5,2.2,1.1,3.1,1.9C154.1,290.8,154.2,290.9,154.3,290.9z"/>
		<path class="st2" d="M180.1,294.5c0,3.4,0.8,3.2,4.5,3.2c2.7,0.1,5.4-0.1,8-0.5h0.2c0.3,0,0.4,0.3,0.4,1c0,0.8-0.1,1.2-0.7,1.3
			s-2.8,0.2-3.4,0.2c-1.7,0.1-3.4,0.1-5.1,0.1s-4.4,0.1-5.4-1.4c-0.6-0.9-0.6-2.7-0.6-3.8v-9.3c0-0.8,0-1.7-0.1-2.5c0,0,0-0.1,0-0.2
			c0-0.1,0.1-0.3,0.2-0.3c0,0,0,0,0,0c0.2,0,1.5,0.3,1.8,0.4s0.6,0.1,0.6,0.4c0,0.1-0.1,0.2-0.1,0.3c-0.2,0.2-0.3,0.4-0.3,0.7
			c0,0.2,0,1.8,0,2.1v2.6c0,0.5,0.4,0.6,0.8,0.6c1,0,2-0.1,3-0.3c2.3-0.5,4.6-1.3,6.6-2.4c0.1-0.1,0.3-0.2,0.4-0.2
			c0.2,0,0.6,0.5,0.9,1l0.2,0.3c0.1,0.2,0.4,0.6,0.4,0.8s-0.2,0.2-0.4,0.2h-0.3h-0.2c-0.3,0-0.6,0.1-0.8,0.2c-2.3,1-4.8,1.7-7.3,2.1
			c-1.2,0.1-2.2,0.2-2.7,0.2c-0.4,0-0.7,0.3-0.7,0.7c0,0,0,0,0,0L180.1,294.5z"/>
		<path class="st2" d="M195.4,285.4c0,0.4-0.8,1.1-1.2,1.2c-0.2,0-0.3-0.1-0.4-0.3c-0.5-0.6-1-1.2-1.6-1.8c-0.1-0.1-0.3-0.2-0.3-0.4
			c0-0.3,0.9-1,1.2-1C194,283.7,194.8,284.5,195.4,285.4z"/>
		<path class="st2" d="M197.7,283.6c0,0.4-0.8,1.1-1.2,1.2c-0.2,0-0.3-0.2-0.4-0.3c-0.5-0.6-1-1.2-1.6-1.8c-0.1-0.1-0.2-0.2-0.2-0.4
			c0-0.3,0.9-1,1.2-1C196.3,281.9,197.1,282.7,197.7,283.6z"/>
		<path class="st2" d="M231.7,284.4c0,0.4-0.8,1.1-1.2,1.2s-0.3-0.1-0.4-0.3c-0.5-0.6-1-1.2-1.6-1.8c-0.1-0.1-0.3-0.2-0.3-0.4
			c0-0.3,0.9-1,1.2-1C230.3,282.7,231.1,283.5,231.7,284.4z"/>
		<path class="st2" d="M234,282.6c0,0.4-0.8,1.1-1.2,1.2c-0.2,0-0.3-0.2-0.4-0.3c-0.5-0.6-1-1.2-1.6-1.8c-0.1-0.1-0.2-0.2-0.2-0.4
			c0-0.3,0.9-1,1.2-1C232.6,280.9,233.4,281.6,234,282.6z"/>
		<path class="st2" d="M226.3,284.4c0.4,0,0.7,0,1.1,0h0.5c0.4,0,1.3,1.1,1.3,1.4s-0.2,0.4-0.3,0.5c-0.4,0.5-0.7,1.1-1,1.6
			c-0.9,1.5-1.9,2.9-3,4.2c-0.1,0.1-0.2,0.3-0.2,0.5c0,0.3,0.1,0.5,0.4,0.6c1.5,1,3,2.1,4.3,3.3c0.6,0.5,1.2,1.1,1.8,1.7
			c0.1,0.1,0.2,0.2,0.2,0.4c0,0.4-1,1.5-1.5,1.5c-0.2,0-0.4-0.2-0.5-0.3c-1.7-1.9-3.6-3.6-5.8-5c-0.1-0.1-0.3-0.2-0.5-0.2
			c-0.3,0-0.5,0.2-0.7,0.4c-1.9,1.8-4,3.3-6.3,4.4c-0.3,0.2-0.7,0.3-1.1,0.5c-0.5,0-1.4-1.2-1.4-1.6s0.3-0.4,0.5-0.5
			c4.8-2.1,8.8-5.7,11.5-10.1c0.2-0.2,0.3-0.5,0.4-0.7c0-0.4-0.4-0.4-0.8-0.4h-5.7c-1,0-2.1,0-3.1,0c-0.6,0-0.6-0.4-0.6-1.1
			c0-0.6,0-1,0.6-1c1,0,2.1,0,3.1,0L226.3,284.4z"/>
		<path class="st2" d="M30.9,195.4L30.9,195.4c-1-2.2-2-2.8-4.5-2.8s-3.4,0.6-4.4,2.8L0.5,243.3c-0.3,0.6-0.5,1.2-0.5,1.9
			c0,2.2,2.4,2.2,3.2,2.2h4.4c2.5,0,3.5-0.6,4.5-2.9l2.7-6.1c0.5-1.2,0.5-1.2,1.9-1.2h19.1c1.4,0,1.4,0,1.9,1.2l2.7,6.1
			c1,2.3,2,2.9,4.5,2.9h5c0.8,0,3.2,0,3.2-2.2c0-0.7-0.2-1.3-0.5-1.9L30.9,195.4z M32.7,226.9H19.8l0,0l6.5-14.7L32.7,226.9
			L32.7,226.9z"/>
		<path class="st2" d="M92.4,208.6h-3.7c-2.7,0-3.7,1-3.7,3.7v22.3c0,1.2,0,1.3-1.2,1.8c-1.7,0.8-3.5,1.2-5.3,1.2
			c-2,0-5.4-0.7-5.4-5.6v-19.7c0-2.7-1-3.7-3.7-3.7h-3.7c-2.7,0-3.7,1-3.7,3.7v20.2c0,9.6,5.3,15.4,14.2,15.4c3.4,0,6.7-0.8,9.7-2.4
			c0.2,1,0.9,1.9,2.7,1.9h4c2.7,0,3.7-1,3.7-3.7v-31.4C96.1,209.6,95.1,208.6,92.4,208.6z"/>
		<path class="st2" d="M130.3,208.6h-5.5c-0.3,0-0.5,0-0.8,0c0-0.3-0.1-0.5-0.1-0.8v-6.2c0-2.7-1-3.7-3.7-3.7h-3.4
			c-2.7,0-3.7,1-3.7,3.7v6.1c0,0.3,0,0.5,0,0.8c-0.3,0-0.5,0-0.8,0H111c-2.7,0-3.7,1-3.7,3.7v2.8c0,2.7,1,3.7,3.7,3.7h1.4
			c0.3,0,0.5,0,0.8,0c0,0.3,0,0.5,0,0.8v15c0,8.8,4.1,12.9,12.9,12.9c1.5,0,3.1-0.1,4.6-0.4c2.5-0.4,3.4-1.5,3.4-4v-2.4
			c0-2.4-1-3.6-3-3.6c-0.3,0-0.7,0-1,0.1c-0.7,0.1-1.5,0.1-2.2,0.1c-3.1,0-3.9-0.8-3.9-4v-13.6c0-0.3,0-0.5,0.1-0.8
			c0.3,0,0.5,0,0.8,0h5.5c2.7,0,3.7-1,3.7-3.7v-2.8C134.1,209.6,133,208.6,130.3,208.6z"/>
		<path class="st2" d="M164.1,208.1c-12.1,0-20.2,8.3-20.2,20.7c0,11.2,7.8,19,18.9,19c12,0,20.1-8.3,20.1-20.6
			C182.9,216,175.2,208.1,164.1,208.1z M163,237.7c-4.6,0-7.7-3.6-7.7-8.9c0-6.1,3.1-9.8,8.4-9.8c4.8,0,7.9,3.5,7.9,8.9
			C171.6,233.8,168.2,237.7,163,237.7z"/>
		<path class="st2" d="M254.9,191.7c-3.7-0.1-6.8,2.8-6.9,6.6c0,0.1,0,0.3,0,0.4c-0.1,3.5,2.6,6.4,6,6.5c0.1,0,0.3,0,0.4,0
			c4.1,0,7-3,7-7.3C261.4,194.3,258.7,191.7,254.9,191.7z"/>
		<path class="st2" d="M252.9,208.6h3.7c2.1,0,3.7,1.7,3.7,3.7v31.4c0,2.1-1.7,3.7-3.7,3.7h-3.7c-2.1,0-3.7-1.7-3.7-3.7v-31.4
			C249.1,210.2,250.8,208.6,252.9,208.6z"/>
		<path class="st2" d="M301.3,237.4h-11.9l14.3-22.7c0.6-1,0.9-2.2,0.9-3.4c0-1.9-0.9-2.7-2.7-2.7h-24.6c-2.7,0-3.7,1-3.7,3.7v2.8
			c0,2.7,1,3.7,3.7,3.7h11l-14.1,22.3c-0.7,1-1.1,2.2-1,3.5c0,2,0.9,2.8,2.8,2.8h25.3c2.7,0,3.7-1,3.7-3.7v-2.5
			C305.1,238.5,304,237.4,301.3,237.4z"/>
		<path class="st2" d="M233.1,197.8c-2.4-3.3-7.3-5.6-12-5.6c-4.4-0.2-8.7,1.6-11.7,4.7c-3.3,3.4-4.3,6.3-5.6,10l-0.6,1.6
			c-0.5,1.4-1.2,3.2-1.8,5l-10.9,29.1c-0.7,1.8,0.2,3.8,2.1,4.5c0.4,0.1,0.8,0.2,1.2,0.2h15.7c5.5,0,16.1-0.2,20.9-6.5
			c4.3-5.6,6.9-15.1,2.3-22.4l1.3-3.4C236.7,208.7,236.4,202.2,233.1,197.8z M224,211.5l-0.1,0.4l-1.1-0.3c-0.2-0.1-1.4-0.3-2.2-0.4
			c-1.7-0.3-3.4,0.9-3.7,2.6c0,0.2,0,0.3,0,0.5v3.9c0,1.5,1.1,2.9,2.6,3.2c1.3,0.3,2.5,0.9,3.5,1.7l0,0c2,2,1.5,5.2,1,6.9
			c-0.2,0.8-0.5,1.6-0.9,2.4c-0.7,1.6-1.9,2.8-3.5,3.6c-1.9,0.9-4,1.5-6.2,1.6c-2.3,0.2-6.4,0-8.5,0l5.3-16.1
			c1.9-5.7,3.5-10.5,3.5-10.6l0.3-0.8c0.8-2.2,1.5-4.4,3.1-5.9c0.8-0.8,1.9-1.4,3-1.5c0.2,0,0.4,0,0.6,0c1.4-0.1,2.7,0.4,3.7,1.4
			C225.5,205.4,225.4,208.3,224,211.5L224,211.5z"/>
	</g>
</g>
</svg>
