<svg xmlns="http://www.w3.org/2000/svg" xmlns:xlink="http://www.w3.org/1999/xlink" viewBox="0 0 297.93 54.88"><defs><style>.cls-1{fill:none;}.cls-2{clip-path:url(#clip-path);}.cls-3{fill:#fff;}</style><clipPath id="clip-path" transform="translate(-12.04 -13.19)"><rect class="cls-1" width="323.17" height="81.36"/></clipPath></defs><g id="レイヤー_2" data-name="レイヤー 2"><g id="レイヤー_1-2" data-name="レイヤー 1"><g class="cls-2"><path class="cls-3" d="M42.26,16.84h0c-1-2.14-1.92-2.76-4.4-2.76s-3.35.62-4.33,2.77l-21,46.81A4.76,4.76,0,0,0,12,65.48c0,2.15,2.35,2.15,3.12,2.15h4.31c2.49,0,3.44-.62,4.42-2.85l2.6-6c.51-1.16.51-1.16,1.84-1.16H47c1.33,0,1.33,0,1.84,1.16l2.6,6c1,2.23,1.93,2.85,4.41,2.85h4.84c.77,0,3.12,0,3.12-2.15a4.79,4.79,0,0,0-.5-1.84ZM44,47.63H31.38l0,0,6.3-14.36,6.23,14.35Z" transform="translate(-12.04 -13.19)"/><path class="cls-3" d="M102.26,29.7H98.61c-2.65,0-3.64,1-3.64,3.64v21.8c0,1.21,0,1.24-1.18,1.77a12.33,12.33,0,0,1-5.15,1.14c-2,0-5.29-.71-5.29-5.44V33.34c0-2.65-1-3.64-3.64-3.64H76.07c-2.65,0-3.64,1-3.64,3.64V53.06c0,9.4,5.17,15,13.83,15a21.44,21.44,0,0,0,9.43-2.3c.22,1,.85,1.86,2.62,1.86h4c2.65,0,3.63-1,3.63-3.64V33.34C105.89,30.69,104.91,29.7,102.26,29.7Z" transform="translate(-12.04 -13.19)"/><path class="cls-3" d="M139.33,29.7H134a5.4,5.4,0,0,1-.78,0,5.4,5.4,0,0,1,0-.78v-6c0-2.65-1-3.64-3.64-3.64h-3.35c-2.65,0-3.63,1-3.63,3.64v6a4.89,4.89,0,0,1,0,.78,5.29,5.29,0,0,1-.78,0h-1.34c-2.65,0-3.64,1-3.64,3.64v2.75c0,2.65,1,3.64,3.64,3.64h1.34a5.29,5.29,0,0,1,.78,0,5.06,5.06,0,0,1,0,.79V55.21c0,8.63,4,12.64,12.63,12.64a27.71,27.71,0,0,0,4.48-.39c2.45-.41,3.33-1.43,3.33-3.91V61.16c0-2.31-1-3.48-2.89-3.48a7.84,7.84,0,0,0-1,.08,16.87,16.87,0,0,1-2.16.14c-3.06,0-3.8-.76-3.8-3.88V40.56a5.58,5.58,0,0,1,0-.79,5.4,5.4,0,0,1,.78,0h5.36c2.65,0,3.64-1,3.64-3.64V33.34C143,30.69,142,29.7,139.33,29.7Z" transform="translate(-12.04 -13.19)"/><path class="cls-3" d="M172.31,29.26c-11.79,0-19.71,8.13-19.71,20.22,0,11,7.58,18.59,18.44,18.59,11.74,0,19.63-8.07,19.63-20.07C190.67,37,183.12,29.26,172.31,29.26Zm-1.05,28.87c-4.5,0-7.52-3.48-7.52-8.65,0-6,3.06-9.6,8.19-9.6,4.67,0,7.68,3.39,7.68,8.64C179.61,54.35,176.33,58.13,171.26,58.13Z" transform="translate(-12.04 -13.19)"/><path class="cls-3" d="M261,13.19A6.57,6.57,0,0,0,254.24,20a6.12,6.12,0,0,0,6.32,6.32c4,0,6.83-2.94,6.83-7.14C267.39,15.72,264.7,13.19,261,13.19Z" transform="translate(-12.04 -13.19)"/><path class="cls-3" d="M246.95,16.51h3.64a3.63,3.63,0,0,1,3.63,3.63V50.8a3.64,3.64,0,0,1-3.64,3.64h-3.64a3.63,3.63,0,0,1-3.63-3.63V20.15A3.64,3.64,0,0,1,246.95,16.51Z"/><path class="cls-3" d="M306.34,57.9H294.76l14-22.22a5.62,5.62,0,0,0,.86-3.31c0-1.82-.85-2.67-2.67-2.67h-24c-2.65,0-3.63,1-3.63,3.64v2.75c0,2.65,1,3.64,3.63,3.64h10.76L279.87,61.5a5.22,5.22,0,0,0-1,3.38c0,1.9.84,2.75,2.74,2.75h24.7c2.65,0,3.63-1,3.63-3.64V61.54C310,58.89,309,57.9,306.34,57.9Z" transform="translate(-12.04 -13.19)"/><path class="cls-3" d="M239.73,19.18c-2.4-3.24-7.13-5.42-11.76-5.42a15.13,15.13,0,0,0-11.39,4.62c-3.23,3.29-4.23,6.14-5.51,9.74l-.55,1.56c-.51,1.4-1.13,3.11-1.78,4.85L198.13,63a3.43,3.43,0,0,0,3.2,4.63h15.3c5.37,0,15.76-.16,20.46-6.31,4.22-5.52,6.74-14.72,2.29-21.84l1.27-3.29C243.22,29.81,242.88,23.46,239.73,19.18Zm-8.87,13.37-.15.41-1.09-.27c-.23,0-1.34-.28-2.14-.4A3.11,3.11,0,0,0,225,33a3.15,3.15,0,0,0-1.11,2.38l0,3.75a3.12,3.12,0,0,0,2.51,3.09,9.27,9.27,0,0,1,3.44,1.65h0c2,2,1.49,5.1,1,6.79a13.76,13.76,0,0,1-.89,2.36,7.86,7.86,0,0,1-3.38,3.57,16.36,16.36,0,0,1-6.09,1.55c-2.23.22-6.2,0-8.29,0l5.19-15.73c1.83-5.54,3.39-10.29,3.41-10.36l.29-.81c.77-2.19,1.49-4.26,3-5.78a5,5,0,0,1,2.94-1.5,4.21,4.21,0,0,1,.62,0,4.82,4.82,0,0,1,3.59,1.35C232.27,26.63,232.13,29.42,230.86,32.55Z" transform="translate(-12.04 -13.19)"/></g></g></g></svg>