<?xml version="1.0" encoding="utf-8"?>
<!-- Generator: Adobe Illustrator 24.1.2, SVG Export Plug-In . SVG Version: 6.00 Build 0)  -->
<svg version="1.1" id="レイヤー_1" xmlns="http://www.w3.org/2000/svg" xmlns:xlink="http://www.w3.org/1999/xlink" x="0px"
	 y="0px" viewBox="0 0 164.4 164.4" style="enable-background:new 0 0 164.4 164.4;" xml:space="preserve">
<style type="text/css">
	.st0{opacity:0.5;}
	.st1{fill:#FFFFFF;}
</style>
<g class="st0">
	<path class="st1" d="M120.8,56.1c6.2-16,5.5-32.2-2-42.8C113.1,5.2,101.7,0,91,0C80.7-0.4,70.8,3.9,64,11.5
		c-8.3,8.9-10.5,16.4-14.1,27L5.5,163.9H31c7.2-13.9,16.3-20,28.5-21.6s40.7-2,52.5-18.2c11.5-15.8,16.1-40,4.8-57.2L120.8,56.1z
		 M98.4,75.7c5.2,5.5,5.8,14.2,3.6,22.6c-0.6,2.5-1.5,4.8-2.6,7.2c-2.2,4.8-5.8,8.8-10.4,11.5c-5.2,3-11.3,4.1-17.3,4.7
		c-8.8,0.9-17.9,0.1-26.5,2.5c-0.8,0.2-3.9,1.3-4.8,1.7l28.4-80.9c2.3-6.9,4.3-14.2,9.6-19.5c2.5-2.8,6-4.7,9.8-5.2
		c5.1-0.6,11.6,1.2,14.4,5.1c3.6,5.1,3.2,14-0.5,23.6l-1.6,4.6c-7-2.8-14.2-3.4-20.6-3.5v20C88.3,70.2,94.1,71.1,98.4,75.7z"/>
</g>
</svg>
