<?xml version="1.0" encoding="utf-8"?>
<!-- Generator: Adobe Illustrator 25.0.0, SVG Export Plug-In . SVG Version: 6.00 Build 0)  -->
<svg version="1.1" id="レイヤー_1" xmlns="http://www.w3.org/2000/svg" xmlns:xlink="http://www.w3.org/1999/xlink" x="0px"
	 y="0px" viewBox="0 0 297.9 54.9" style="enable-background:new 0 0 297.9 54.9;" xml:space="preserve">
<style type="text/css">
	.st0{clip-path:url(#SVGID_2_);}
	.st1{fill:#2A6CB5;}
</style>
<g id="レイヤー_2_1_">
	<g>
		<defs>
			<rect id="SVGID_1_" x="-12" y="-13.2" width="323.2" height="81.4"/>
		</defs>
		<clipPath id="SVGID_2_">
			<use xlink:href="#SVGID_1_"  style="overflow:visible;"/>
		</clipPath>
		<g class="st0">
			<path class="st1" d="M30.2,3.7L30.2,3.7c-1-2.1-1.9-2.8-4.4-2.8s-3.3,0.6-4.3,2.8l-21,46.8C0.2,51,0,51.7,0,52.3
				c0,2.2,2.4,2.2,3.1,2.2h4.3c2.5,0,3.4-0.6,4.4-2.8l2.6-6c0.5-1.2,0.5-1.2,1.8-1.2H35c1.3,0,1.3,0,1.8,1.2l2.6,6
				c1,2.2,1.9,2.8,4.4,2.8h4.8c0.8,0,3.1,0,3.1-2.2c0-0.6-0.2-1.3-0.5-1.8L30.2,3.7z M32,34.4H19.3l0,0l6.3-14.4L32,34.4L32,34.4z"
				/>
			<path class="st1" d="M90.2,16.5h-3.7c-2.7,0-3.6,1-3.6,3.6V42c0,1.2,0,1.2-1.2,1.8c-1.6,0.7-3.4,1.1-5.2,1.1
				c-2,0-5.3-0.7-5.3-5.4V20.2c0-2.7-1-3.6-3.6-3.6H64c-2.7,0-3.6,1-3.6,3.6v19.7c0,9.4,5.2,15,13.8,15c3.3,0,6.5-0.8,9.4-2.3
				c0.2,1,0.8,1.9,2.6,1.9h4c2.7,0,3.6-1,3.6-3.6V20.2C93.8,17.5,92.9,16.5,90.2,16.5z"/>
			<path class="st1" d="M127.3,16.5H122c-0.3,0-0.5,0-0.8,0c0-0.3,0-0.5,0-0.8v-6c0-2.6-1-3.6-3.6-3.6h-3.3c-2.7,0-3.6,1-3.6,3.6v6
				c0,0.3,0,0.5,0,0.8c-0.3,0-0.5,0-0.8,0h-1.3c-2.7,0-3.6,1-3.6,3.6v2.8c0,2.7,1,3.6,3.6,3.6h1.3c0.3,0,0.5,0,0.8,0
				c0,0.3,0,0.5,0,0.8V42c0,8.6,4,12.6,12.6,12.6c1.5,0,3-0.1,4.5-0.4c2.5-0.4,3.3-1.4,3.3-3.9V48c0-2.3-1-3.5-2.9-3.5
				c-0.3,0-0.7,0-1,0.1c-0.7,0.1-1.4,0.1-2.2,0.1c-3.1,0-3.8-0.8-3.8-3.9V27.4c0-0.3,0-0.5,0-0.8c0.3,0,0.5,0,0.8,0h5.4
				c2.7,0,3.6-1,3.6-3.6v-2.8C131,17.5,130,16.5,127.3,16.5z"/>
			<path class="st1" d="M160.3,16.1c-11.8,0-19.7,8.1-19.7,20.2c0,11,7.6,18.6,18.4,18.6c11.7,0,19.6-8.1,19.6-20.1
				C178.6,23.8,171.1,16.1,160.3,16.1z M159.2,44.9c-4.5,0-7.5-3.5-7.5-8.6c0-6,3.1-9.6,8.2-9.6c4.7,0,7.7,3.4,7.7,8.6
				C167.6,41.2,164.3,44.9,159.2,44.9z"/>
			<path class="st1" d="M249,0c-3.6-0.1-6.7,2.7-6.8,6.4c0,0.1,0,0.3,0,0.4c-0.1,3.4,2.5,6.2,5.9,6.3c0.1,0,0.3,0,0.4,0
				c4,0,6.8-2.9,6.8-7.1C255.4,2.5,252.7,0,249,0z"/>
			<path class="st1" d="M246.9,16.5h3.6c2,0,3.6,1.6,3.6,3.6c0,0,0,0,0,0v30.7c0,2-1.6,3.6-3.6,3.6h-3.6c-2,0-3.6-1.6-3.6-3.6v0
				V20.1C243.3,18.1,244.9,16.5,246.9,16.5z"/>
			<path class="st1" d="M294.3,44.7h-11.6l14-22.2c0.6-1,0.9-2.1,0.9-3.3c0-1.8-0.9-2.7-2.7-2.7h-24c-2.6,0-3.6,1-3.6,3.6v2.8
				c0,2.7,1,3.6,3.6,3.6h10.8l-13.8,21.8c-0.7,1-1.1,2.2-1,3.4c0,1.9,0.8,2.8,2.7,2.8h24.7c2.6,0,3.6-1,3.6-3.6v-2.4
				C298,45.7,297,44.7,294.3,44.7z"/>
			<path class="st1" d="M227.7,6c-2.4-3.2-7.1-5.4-11.8-5.4c-4.3-0.1-8.4,1.5-11.4,4.6c-3.2,3.3-4.2,6.1-5.5,9.7l-0.6,1.6
				c-0.5,1.4-1.1,3.1-1.8,4.8l-10.6,28.5c-0.7,1.8,0.2,3.8,2,4.4c0.4,0.1,0.8,0.2,1.2,0.2h15.3c5.4,0,15.8-0.2,20.5-6.3
				c4.2-5.5,6.7-14.7,2.3-21.8l1.3-3.3C231.2,16.6,230.8,10.3,227.7,6z M218.8,19.4l-0.1,0.4l-1.1-0.3c-0.2,0-1.3-0.3-2.1-0.4
				c-0.9-0.1-1.8,0.1-2.5,0.7c-0.7,0.6-1.1,1.5-1.1,2.4v3.8c0,1.5,1,2.8,2.5,3.1c1.2,0.3,2.4,0.9,3.4,1.7l0,0c2,2,1.5,5.1,1,6.8
				c-0.2,0.8-0.5,1.6-0.9,2.4c-0.7,1.5-1.9,2.8-3.4,3.6c-1.9,0.9-4,1.4-6.1,1.5c-2.2,0.2-6.2,0-8.3,0l5.2-15.7
				c1.8-5.5,3.4-10.3,3.4-10.4l0.3-0.8c0.8-2.2,1.5-4.3,3-5.8c0.8-0.8,1.8-1.3,2.9-1.5c0.2,0,0.4,0,0.6,0c1.3-0.1,2.6,0.4,3.6,1.4
				C220.2,13.4,220.1,16.2,218.8,19.4z"/>
		</g>
	</g>
</g>
</svg>
